<?xml version="1.0" encoding="iso-8859-1"?>
<!-- Uploaded to: SVG Repo, www.svgrepo.com, Generator: SVG Repo Mixer Tools -->
<svg fill="#000000" height="800px" width="800px" version="1.1" id="Capa_1" xmlns="http://www.w3.org/2000/svg" xmlns:xlink="http://www.w3.org/1999/xlink" 
	 viewBox="0 0 380 380" xml:space="preserve">
<g id="XMLID_510_">
	<path id="XMLID_515_" d="M380,140V20h-20V0H240v20H140V0H20v20H0v120h20v100H0v120h20v20h120v-20h100v20h120v-20h20V240h-20V140
		H380z M340,100h-20v180h20v40h-20v20h-40v-20H100v20H60v-20H40v-40h20V100H40V60h20V40h40v20h180V40h40v20h20V100z"/>
	<path id="XMLID_829_" d="M100,280h180V100H100V280z M140,140h100v100H140V140z"/>
</g>
</svg>