<svg id="_Layer_" data-name="&lt;Layer&gt;" xmlns="http://www.w3.org/2000/svg" viewBox="0 0 2316.414 1563.563">
<path d="M1450.192,718.35a14.959,14.959,0,0,1-14.873-15.045V299.642h-60.948V374.39a14.961,14.961,0,0,1-14.873,15.046h-92.892a15.047,15.047,0,0,1,0-30.092h78.019V284.6a14.961,14.961,0,0,1,14.873-15.045h90.694a14.96,14.96,0,0,1,14.874,15.045V703.305A14.959,14.959,0,0,1,1450.192,718.35Z" transform="translate(-202.628 -169.041)" style="fill:#576887"/>
<path d="M1358.4,1011.169a14.961,14.961,0,0,1-14.873-15.046,15.141,15.141,0,0,1,.815-4.922c2.468-23.089.834-226.307-.813-351.557a14.874,14.874,0,1,1,29.743-.4c.012.88,1.165,89.057,1.749,176.67.343,51.491.425,92.732.244,122.568-.377,62.207-1.038,62.886-6.186,68.16A15.043,15.043,0,0,1,1358.4,1011.169Zm0-30.092a14.382,14.382,0,0,0-8.269,2.54A14.671,14.671,0,0,1,1358.4,981.077Z" transform="translate(-202.628 -169.041)" style="fill:#576887"/>
<path d="M1450.192,1011.169a14.959,14.959,0,0,1-14.873-15.046V828.576a14.874,14.874,0,1,1,29.747,0V996.123A14.96,14.96,0,0,1,1450.192,1011.169Z" transform="translate(-202.628 -169.041)" style="fill:#576887"/>
<path d="M2152.593,927.4H1699.119a14.959,14.959,0,0,1-14.873-15.045V299.642H1536.464V854.585a14.874,14.874,0,1,1-29.747,0V284.6a14.961,14.961,0,0,1,14.873-15.045h177.529a14.96,14.96,0,0,1,14.873,15.045V897.3h423.727V659.744H1963.485a15.047,15.047,0,0,1,0-30.091h189.108a14.96,14.96,0,0,1,14.873,15.046V912.35A14.959,14.959,0,0,1,2152.593,927.4Z" transform="translate(-202.628 -169.041)" style="fill:#576887"/>
<path d="M2067.687,393.34H1795.605a15.047,15.047,0,0,1,0-30.092h272.082a15.047,15.047,0,0,1,0,30.092Z" transform="translate(-202.628 -169.041)" style="fill:#576887"/>
<path d="M2061.9,843.622H1795.605a14.96,14.96,0,0,1-14.874-15.046V188.948a14.874,14.874,0,1,1,29.747,0V813.53h236.545V754.4H1885.385a14.96,14.96,0,0,1-14.873-15.045V460.369a14.959,14.959,0,0,1,14.873-15.045h238.827V299.642H1872.789a15.047,15.047,0,0,1,0-30.091h266.3a14.96,14.96,0,0,1,14.873,15.045V460.369a14.96,14.96,0,0,1-14.873,15.046H1900.259v248.9H2061.9a14.959,14.959,0,0,1,14.873,15.046v89.217A14.959,14.959,0,0,1,2061.9,843.622Z" transform="translate(-202.628 -169.041)" style="fill:#576887"/>
<path d="M2245.217,1011.169a14.959,14.959,0,0,1-14.873-15.046V274.837a14.874,14.874,0,1,1,29.747,0V996.123A14.96,14.96,0,0,1,2245.217,1011.169Z" transform="translate(-202.628 -169.041)" style="fill:#576887"/>
<path d="M2332.73,570.915a14.959,14.959,0,0,1-14.873-15.046V188.948a14.874,14.874,0,1,1,29.746,0V555.869A14.96,14.96,0,0,1,2332.73,570.915Z" transform="translate(-202.628 -169.041)" style="fill:#576887"/>
<path d="M2416.956,570.584a14.961,14.961,0,0,1-14.874-15.046V431a14.961,14.961,0,0,1,14.874-15.046h87.213a15.047,15.047,0,0,1,0,30.091h-72.34v109.5A14.959,14.959,0,0,1,2416.956,570.584Z" transform="translate(-202.628 -169.041)" style="fill:#576887"/>
<path d="M2504.169,754.4H2328.192a15.046,15.046,0,0,1,0-30.091h175.977a15.047,15.047,0,0,1,0,30.091Z" transform="translate(-202.628 -169.041)" style="fill:#576887"/>
<path d="M2397.661,832.831H2245.217a15.047,15.047,0,0,1,0-30.091h152.444a15.046,15.046,0,0,1,0,30.091Z" transform="translate(-202.628 -169.041)" style="fill:#576887"/>
<path d="M2504.169,934.272h-164.4a15.047,15.047,0,0,1,0-30.092h164.4a15.047,15.047,0,0,1,0,30.092Z" transform="translate(-202.628 -169.041)" style="fill:#576887"/>
<path d="M1609.657,1011.169a14.96,14.96,0,0,1-14.873-15.046V378.294a14.874,14.874,0,1,1,29.747,0V996.123A14.96,14.96,0,0,1,1609.657,1011.169Z" transform="translate(-202.628 -169.041)" style="fill:#576887"/>
<path d="M2245.217,570.915H1967.343a15.047,15.047,0,0,1,0-30.091h277.874a15.046,15.046,0,0,1,0,30.091Z" transform="translate(-202.628 -169.041)" style="fill:#576887"/>
<path d="M2416.181,654.49H2245.217a15.047,15.047,0,0,1,0-30.091h170.964a15.047,15.047,0,0,1,0,30.091Z" transform="translate(-202.628 -169.041)" style="fill:#576887"/>
<path d="M2504.169,754.4a14.961,14.961,0,0,1-14.874-15.045V201a1.863,1.863,0,0,0-1.85-1.872H1283.33a1.864,1.864,0,0,0-1.851,1.872V612.54a14.874,14.874,0,1,1-29.747,0V201a31.818,31.818,0,0,1,31.6-31.963H2487.445a31.816,31.816,0,0,1,31.6,31.963V739.359A14.96,14.96,0,0,1,2504.169,754.4Z" transform="translate(-202.628 -169.041)" style="fill:#576887"/>
<path d="M2487.445,1011.169H1283.33a31.818,31.818,0,0,1-31.6-31.963V750.5a14.874,14.874,0,1,1,29.747,0v228.71a1.863,1.863,0,0,0,1.851,1.871H2487.445a1.863,1.863,0,0,0,1.85-1.871V838.97a14.874,14.874,0,1,1,29.747,0V979.206A31.816,31.816,0,0,1,2487.445,1011.169Z" transform="translate(-202.628 -169.041)" style="fill:#576887"/>
<path d="M1040.772,825.971a51.048,51.048,0,0,1-18.2-3.205,3.772,3.772,0,0,1-2.171-4.844,3.7,3.7,0,0,1,4.789-2.2,46.2,46.2,0,0,0,21.7,2.362,3.761,3.761,0,0,1,.854,7.472A60.216,60.216,0,0,1,1040.772,825.971Zm29.093-7.633a3.709,3.709,0,0,1-3.272-1.968,3.785,3.785,0,0,1,1.495-5.1,52.705,52.705,0,0,0,15.36-12.508c.526-.633,1.034-1.271,1.531-1.914a3.7,3.7,0,0,1,5.219-.654,3.792,3.792,0,0,1,.646,5.279q-.828,1.076-1.7,2.128a60.134,60.134,0,0,1-17.507,14.281A3.662,3.662,0,0,1,1069.865,818.338Zm-64.392-9.955a3.7,3.7,0,0,1-3.092-1.667,48.008,48.008,0,0,1-7.617-24.632,3.719,3.719,0,1,1,7.431-.306,40.422,40.422,0,0,0,6.364,20.75,3.788,3.788,0,0,1-1.019,5.219A3.668,3.668,0,0,1,1005.473,808.383Zm93.97-26.409a3.666,3.666,0,0,1-1.327-.25,3.772,3.772,0,0,1-2.146-4.854,108.467,108.467,0,0,0,5.652-22.492,3.719,3.719,0,1,1,7.355,1.1,115.906,115.906,0,0,1-6.06,24.074A3.721,3.721,0,0,1,1099.443,781.974Zm-96.9-19.83a3.673,3.673,0,0,1-1.353-.26,3.774,3.774,0,0,1-2.108-4.872,65.039,65.039,0,0,1,7.234-13.678,79.984,79.984,0,0,1,6.114-7.712,3.689,3.689,0,0,1,5.252-.258,3.793,3.793,0,0,1,.256,5.313,72.481,72.481,0,0,0-5.539,6.984,57.537,57.537,0,0,0-6.392,12.09A3.719,3.719,0,0,1,1002.539,762.144Zm104.393-27.476a3.717,3.717,0,0,1-3.718-3.736c0-5.389-.219-11.093-.65-17q-.243-3.327-.561-6.669a3.719,3.719,0,1,1,7.4-.723q.327,3.423.576,6.838c.444,6.094.669,11.984.669,17.508A3.76,3.76,0,0,1,1106.932,734.668Zm-73.606-8.236a3.7,3.7,0,0,1-3.1-1.683,3.789,3.789,0,0,1,1.045-5.214,162.82,162.82,0,0,1,21.306-11.884,3.7,3.7,0,0,1,4.943,1.818,3.782,3.782,0,0,1-1.8,5,155.053,155.053,0,0,0-20.342,11.337A3.681,3.681,0,0,1,1033.326,726.432Zm42.939-20.455a3.725,3.725,0,0,1-3.541-2.619,3.771,3.771,0,0,1,2.413-4.727c7.062-2.278,14.918-4.373,23.354-6.23a3.76,3.76,0,0,1,1.58,7.352c-8.207,1.806-15.836,3.84-22.674,6.045A3.69,3.69,0,0,1,1076.265,705.977Zm46.429-10.483a3.765,3.765,0,0,1-.559-7.479c7.5-1.162,15.5-2.208,23.78-3.106a3.761,3.761,0,0,1,.793,7.479c-8.17.888-16.06,1.917-23.446,3.062A3.541,3.541,0,0,1,1122.694,695.494Zm47.332-5.219a3.763,3.763,0,0,1-.263-7.513c7.709-.562,15.743-1.028,23.879-1.385a3.762,3.762,0,0,1,.323,7.517c-8.066.352-16.029.814-23.667,1.371C1170.206,690.272,1170.116,690.275,1170.026,690.275Zm109.851-1.412c-.065,0-.13,0-.2-.005-.026,0-5.4-.283-14.561-.531a3.742,3.742,0,0,1-3.618-3.86,3.678,3.678,0,0,1,3.816-3.66c9.3.251,14.75.538,14.75.538a3.763,3.763,0,0,1-.191,7.518Zm-62.274-.71a3.762,3.762,0,0,1-.068-7.523c7.077-.133,13.789-.187,20-.189l3.892.007a3.762,3.762,0,0,1-.013,7.523l-3.878-.007c-6.172,0-12.837.056-19.864.189Zm-115.232-1.327a3.73,3.73,0,0,1-3.649-3.057,206.757,206.757,0,0,0-5.638-22.924,3.768,3.768,0,0,1,2.433-4.715,3.7,3.7,0,0,1,4.661,2.461,214.262,214.262,0,0,1,5.85,23.77,3.76,3.76,0,0,1-2.957,4.4A3.636,3.636,0,0,1,1102.371,686.826Zm-117.013-30.3a66.475,66.475,0,0,1-24.165-4.394,3.774,3.774,0,0,1-2.114-4.87,3.7,3.7,0,0,1,4.815-2.138A59.08,59.08,0,0,0,985.358,649l.461,0a3.762,3.762,0,0,1,.067,7.523Zm23.82-4.191a3.726,3.726,0,0,1-3.537-2.6,3.771,3.771,0,0,1,2.391-4.738,103.023,103.023,0,0,0,20.861-9.573,3.7,3.7,0,0,1,5.1,1.316,3.786,3.786,0,0,1-1.3,5.154,110.376,110.376,0,0,1-22.363,10.259A3.667,3.667,0,0,1,1009.178,652.333Zm78.764-11.234a3.718,3.718,0,0,1-3.352-2.129,132.407,132.407,0,0,0-11.794-20.094,3.789,3.789,0,0,1,.829-5.253,3.691,3.691,0,0,1,5.193.839,139.917,139.917,0,0,1,12.47,21.24,3.78,3.78,0,0,1-1.734,5.022A3.65,3.65,0,0,1,1087.942,641.1Zm-144.006-3.077a3.7,3.7,0,0,1-3.116-1.7,34.1,34.1,0,0,1-5.418-18.43,35.428,35.428,0,0,1,.815-7.489,3.719,3.719,0,0,1,4.428-2.866,3.762,3.762,0,0,1,2.836,4.48,27.733,27.733,0,0,0-.642,5.875,26.5,26.5,0,0,0,4.206,14.316,3.786,3.786,0,0,1-1.079,5.205A3.665,3.665,0,0,1,943.936,638.022Zm105.97-9.86a3.69,3.69,0,0,1-2.774-1.255,3.794,3.794,0,0,1,.294-5.312,150.227,150.227,0,0,0,15.982-17,3.69,3.69,0,0,1,5.232-.532,3.79,3.79,0,0,1,.526,5.292,157.808,157.808,0,0,1-16.784,17.852A3.682,3.682,0,0,1,1049.906,628.162Zm10.016-25.6a3.684,3.684,0,0,1-2.462-.943,100.83,100.83,0,0,0-18.772-13.274,3.785,3.785,0,0,1-1.5-5.1,3.7,3.7,0,0,1,5.04-1.516,108.3,108.3,0,0,1,20.158,14.253,3.792,3.792,0,0,1,.322,5.309A3.689,3.689,0,0,1,1059.922,602.565Zm-108.278-8.13a3.69,3.69,0,0,1-2.638-1.109,3.8,3.8,0,0,1,.016-5.32,59.115,59.115,0,0,1,18.984-12.776q1.131-.471,2.276-.9a3.706,3.706,0,0,1,4.779,2.218,3.773,3.773,0,0,1-2.193,4.835q-1.019.381-2.028.8a51.6,51.6,0,0,0-16.574,11.158A3.688,3.688,0,0,1,951.644,594.435Zm128.484-3.266a3.662,3.662,0,0,1-1.979-.579,3.784,3.784,0,0,1-1.164-5.186c4-6.421,7.854-13.377,11.468-20.672a3.7,3.7,0,0,1,4.991-1.678,3.783,3.783,0,0,1,1.658,5.049c-3.722,7.512-7.7,14.683-11.826,21.309A3.7,3.7,0,0,1,1080.128,591.169ZM1018.4,579.945a3.623,3.623,0,0,1-.94-.123,79.88,79.88,0,0,0-22.513-2.705,3.762,3.762,0,0,1-.2-7.52,86.825,86.825,0,0,1,24.588,2.946,3.765,3.765,0,0,1,2.661,4.587A3.727,3.727,0,0,1,1018.4,579.945Zm83.167-31.71a3.665,3.665,0,0,1-1.4-.278,3.775,3.775,0,0,1-2.049-4.9c2.862-7.138,5.591-14.667,8.108-22.374a3.713,3.713,0,0,1,4.7-2.392,3.772,3.772,0,0,1,2.364,4.752c-2.569,7.865-5.355,15.55-8.279,22.84A3.719,3.719,0,0,1,1101.563,548.235Zm-215.644-5.663a33.291,33.291,0,0,1-6.789-.707,3.759,3.759,0,0,1,1.5-7.367,25.67,25.67,0,0,0,14.05-1,29.71,29.71,0,0,0,5.987-2.948,3.7,3.7,0,0,1,5.13,1.172,3.79,3.79,0,0,1-1.159,5.19,37.32,37.32,0,0,1-7.473,3.678A33.244,33.244,0,0,1,885.919,542.572ZM859.7,529.911a3.688,3.688,0,0,1-2.7-1.17,60.317,60.317,0,0,1-13-21.852,3.775,3.775,0,0,1,2.312-4.779,3.711,3.711,0,0,1,4.724,2.34,52.747,52.747,0,0,0,11.351,19.108,3.793,3.793,0,0,1-.132,5.317A3.684,3.684,0,0,1,859.7,529.911Zm58.553-10.248a3.673,3.673,0,0,1-1.764-.454,3.784,3.784,0,0,1-1.5-5.1,77.231,77.231,0,0,0,6.242-15.991q.768-2.8,1.369-5.62a3.72,3.72,0,0,1,4.42-2.881,3.76,3.76,0,0,1,2.848,4.471q-.647,3.03-1.471,6.04a84.735,84.735,0,0,1-6.866,17.557A3.711,3.711,0,0,1,918.248,519.663Zm198.3-17.11a3.623,3.623,0,0,1-.956-.128,3.764,3.764,0,0,1-2.642-4.6c2.078-7.928,3.844-15.736,5.251-23.206a3.718,3.718,0,0,1,4.348-2.992,3.76,3.76,0,0,1,2.957,4.4c-1.439,7.644-3.245,15.627-5.367,23.726A3.729,3.729,0,0,1,1116.552,502.553ZM845.2,485.709a3.73,3.73,0,0,1-3.678-4.348l.157-.933a78.35,78.35,0,0,1,8.032-22.877,3.687,3.687,0,0,1,5.033-1.538,3.781,3.781,0,0,1,1.521,5.091A69.787,69.787,0,0,0,849,481.777l-.127.756A3.732,3.732,0,0,1,845.2,485.709Zm83.446-12.553a3.739,3.739,0,0,1-3.718-3.742,121.422,121.422,0,0,0-2.408-23.172,3.761,3.761,0,0,1,2.9-4.435,3.712,3.712,0,0,1,4.383,2.939,129.02,129.02,0,0,1,2.557,24.63,3.74,3.74,0,0,1-3.7,3.78Zm81.7-6.253a3.58,3.58,0,0,1-.615-.052,76.5,76.5,0,0,1-23.564-8.12,3.782,3.782,0,0,1-1.537-5.087,3.7,3.7,0,0,1,5.029-1.554,69.213,69.213,0,0,0,21.295,7.342,3.765,3.765,0,0,1-.608,7.471Zm23.651-.325a3.766,3.766,0,0,1-.748-7.446,51.855,51.855,0,0,0,15.606-5.967,46.431,46.431,0,0,0,4.524-3.011,3.689,3.689,0,0,1,5.2.773,3.791,3.791,0,0,1-.764,5.264,54.235,54.235,0,0,1-5.245,3.489,59.2,59.2,0,0,1-17.819,6.819A3.709,3.709,0,0,1,1034,466.578Zm91.3-11.306c-.122,0-.246-.006-.371-.017a3.753,3.753,0,0,1-3.335-4.114c.689-7.04,1.037-13.935,1.037-20.5q0-1.56-.026-3.112a3.744,3.744,0,0,1,3.656-3.824,3.831,3.831,0,0,1,3.781,3.7q.027,1.619.026,3.238c0,6.805-.36,13.95-1.072,21.235A3.735,3.735,0,0,1,1125.3,455.272ZM969.085,444.633a3.691,3.691,0,0,1-2.723-1.2,66.241,66.241,0,0,1-13.206-21.064l-.158-.413a3.774,3.774,0,0,1,2.169-4.845,3.707,3.707,0,0,1,4.791,2.194l.123.322a58.746,58.746,0,0,0,11.725,18.681,3.793,3.793,0,0,1-.189,5.316A3.682,3.682,0,0,1,969.085,444.633Zm-102.449-1.2a3.67,3.67,0,0,1-2.433-.919,3.79,3.79,0,0,1-.376-5.305A202,202,0,0,1,880.892,419.8a3.688,3.688,0,0,1,5.252.261,3.791,3.791,0,0,1-.259,5.313,194.679,194.679,0,0,0-16.437,16.759A3.693,3.693,0,0,1,866.636,443.434Zm204.374-4.6a3.671,3.671,0,0,1-1.8-.47,3.783,3.783,0,0,1-1.454-5.111,64.446,64.446,0,0,0,7.073-21.439,3.72,3.72,0,1,1,7.359,1.093,72.127,72.127,0,0,1-7.925,23.987A3.71,3.71,0,0,1,1071.01,438.833ZM919.426,426.2a3.72,3.72,0,0,1-3.465-2.4,151.426,151.426,0,0,0-8.048-17.443c-1.4,1.179-2.766,2.329-4.079,3.437a3.69,3.69,0,0,1-5.238-.479,3.791,3.791,0,0,1,.474-5.3c5.562-4.691,12.031-10.134,18.453-15.323a3.687,3.687,0,0,1,5.226.59,3.79,3.79,0,0,1-.583,5.287c-2.822,2.28-5.656,4.612-8.42,6.908a158.934,158.934,0,0,1,9.143,19.588,3.773,3.773,0,0,1-2.113,4.87A3.68,3.68,0,0,1,919.426,426.2ZM710.946,412.12a3.666,3.666,0,0,1-1.861-.507,3.783,3.783,0,0,1-1.353-5.139A125.857,125.857,0,0,1,722,386.346a3.687,3.687,0,0,1,5.248-.337,3.794,3.794,0,0,1,.333,5.309,118.338,118.338,0,0,0-13.41,18.926A3.712,3.712,0,0,1,710.946,412.12Zm413.264-4.838a3.731,3.731,0,0,1-3.661-3.134,122.789,122.789,0,0,0-5.929-22.522,3.776,3.776,0,0,1,2.17-4.846,3.71,3.71,0,0,1,4.79,2.2,130.433,130.433,0,0,1,6.3,23.917,3.757,3.757,0,0,1-3.046,4.336A3.58,3.58,0,0,1,1124.21,407.282Zm-172.03-6.674a3.538,3.538,0,0,1-3.714-3.486v-.259a81.968,81.968,0,0,1,3.756-24.506c-3.673,2.4-7.4,4.973-11.27,7.773a3.692,3.692,0,0,1-5.189-.872,3.791,3.791,0,0,1,.865-5.249c5.9-4.263,11.47-8.013,17.036-11.462q1.564-.969,3.162-1.908A3.7,3.7,0,0,1,961.908,362a3.784,3.784,0,0,1-1.347,5.141q-1.524.9-3.016,1.821-.574.354-1.15.717a3.635,3.635,0,0,1,.522.126,3.771,3.771,0,0,1,2.425,4.72,74.051,74.051,0,0,0-3.442,22.079,3.954,3.954,0,0,1-3.7,4Zm125.566-8.416a3.732,3.732,0,0,1-3.629-2.951,50.761,50.761,0,0,0-9.149-20.211,3.79,3.79,0,0,1,.665-5.276,3.686,3.686,0,0,1,5.216.671,58.246,58.246,0,0,1,10.531,23.192,3.765,3.765,0,0,1-2.828,4.486A3.727,3.727,0,0,1,1077.746,392.192Zm-182.3-7.333a3.692,3.692,0,0,1-2.763-1.242,80.1,80.1,0,0,0-17.516-14.543,3.787,3.787,0,0,1-1.217-5.175,3.693,3.693,0,0,1,5.116-1.231,87.606,87.606,0,0,1,19.139,15.909,3.792,3.792,0,0,1-.27,5.313A3.687,3.687,0,0,1,895.448,384.859Zm-153.187-8.534a3.7,3.7,0,0,1-2.988-1.519,3.79,3.79,0,0,1,.769-5.262,118.01,118.01,0,0,1,21.107-12.631,3.7,3.7,0,0,1,4.931,1.847,3.777,3.777,0,0,1-1.825,4.988,110.661,110.661,0,0,0-19.78,11.835A3.665,3.665,0,0,1,742.261,376.325ZM1107.3,362.679a3.7,3.7,0,0,1-3.1-1.671,96.279,96.279,0,0,0-6.715-8.979,82.692,82.692,0,0,0-8.2-8.418,3.79,3.79,0,0,1-.334-5.308,3.691,3.691,0,0,1,5.249-.339,90.259,90.259,0,0,1,8.945,9.184,103.83,103.83,0,0,1,7.241,9.681,3.787,3.787,0,0,1-1.027,5.217A3.669,3.669,0,0,1,1107.3,362.679Zm-251.7-3.195a3.648,3.648,0,0,1-1.2-.2,119.06,119.06,0,0,0-22.439-5.32,3.754,3.754,0,0,1-3.181-4.236,3.7,3.7,0,0,1,4.186-3.218,126.334,126.334,0,0,1,23.831,5.654,3.769,3.769,0,0,1,2.321,4.772A3.722,3.722,0,0,1,855.593,359.484Zm124.525-2.266a3.722,3.722,0,0,1-3.469-2.406,3.773,3.773,0,0,1,2.127-4.865,128.176,128.176,0,0,1,23.535-6.793,3.715,3.715,0,0,1,4.32,3.033,3.759,3.759,0,0,1-3,4.37,120.933,120.933,0,0,0-22.176,6.407A3.675,3.675,0,0,1,980.118,357.218Zm-194.949-.938a3.768,3.768,0,0,1-.857-7.424,130.39,130.39,0,0,1,24.223-3.441A3.7,3.7,0,0,1,812.424,349a3.745,3.745,0,0,1-3.54,3.934,122.869,122.869,0,0,0-22.852,3.246A3.715,3.715,0,0,1,785.169,356.28Zm264.33-.716a3.649,3.649,0,0,1-1.641-.39,59.682,59.682,0,0,0-21.516-5.872,3.761,3.761,0,0,1,.644-7.494,67,67,0,0,1,24.16,6.619,3.782,3.782,0,0,1,1.691,5.037A3.717,3.717,0,0,1,1049.5,355.564Zm-83.381-.01a3.675,3.675,0,0,1-2.077-.644,3.789,3.789,0,0,1-1-5.222,83.908,83.908,0,0,1,16.749-18.525,3.684,3.684,0,0,1,5.228.569,3.79,3.79,0,0,1-.563,5.288A76.438,76.438,0,0,0,969.2,353.9,3.7,3.7,0,0,1,966.118,355.554Zm105.908-24.367a3.664,3.664,0,0,1-1.656-.4,90.472,90.472,0,0,0-21.522-7.631,3.762,3.762,0,0,1-2.855-4.467,3.708,3.708,0,0,1,4.415-2.889,97.726,97.726,0,0,1,23.279,8.255,3.78,3.78,0,0,1,1.669,5.044A3.714,3.714,0,0,1,1072.026,331.187Zm-69.288-5.125a3.725,3.725,0,0,1-3.492-2.47,3.773,3.773,0,0,1,2.214-4.825,82.948,82.948,0,0,1,24.317-4.978,3.761,3.761,0,0,1,.4,7.511,75.6,75.6,0,0,0-22.162,4.531A3.678,3.678,0,0,1,1002.738,326.062Z" transform="translate(-202.628 -169.041)" style="fill:#576887"/>
<path d="M562.688,339.509a5.838,5.838,0,0,1-4.514-1.373,6.034,6.034,0,0,1-2.362-4.081q-.5-4.156,6.394-11.174l12.935-12.588q6.88-7.627,6.217-13.168-.837-6.986-8.035-12.1-6.936-4.956-13.964-4.095-3.752.459-9.064,5.052t-6.678,4.762a5.449,5.449,0,0,1-4.436-1.474,6.591,6.591,0,0,1-2.292-4.242q-.571-4.758,7.98-10.575,7.652-5.214,13.011-5.871,11.97-1.468,22.865,6.793t12.343,20.307a24.082,24.082,0,0,1-3.729,16.287q-2.847,4.507-11.118,12.12-8.31,7.8-11.384,12.4A5.964,5.964,0,0,1,562.688,339.509Zm-.535,23.29a7.216,7.216,0,0,1-4.947-1.2,5.461,5.461,0,0,1-2.629-4.046,12.222,12.222,0,0,1,1.156-6.988,6.633,6.633,0,0,1,5.256-4.066q5.716-.7,6.568,6.408a11.7,11.7,0,0,1-.837,6.153Q565.19,362.427,562.153,362.8Z" transform="translate(-202.628 -169.041)"/><path d="M637.606,373.107a4.956,4.956,0,0,1-3.081-1.646,3.768,3.768,0,0,1-1.061-3.137,8.306,8.306,0,0,1,1.943-4.435,4.506,4.506,0,0,1,4.167-1.793q3.908.52,3.278,5.381a7.983,7.983,0,0,1-1.591,3.938A3.884,3.884,0,0,1,637.606,373.107Zm4.273-15.354a4.015,4.015,0,0,1-2.764-1.687,4.154,4.154,0,0,1-.879-3.112q.37-2.838,6.121-6.309l10.694-6.118q5.844-3.874,6.337-7.664.624-4.777-3.292-9.4a13.45,13.45,0,0,0-8.571-5.119q-2.565-.345-6.859,1.789t-5.23,2.007a3.754,3.754,0,0,1-2.7-1.743,4.535,4.535,0,0,1-.8-3.206q.423-3.252,7.071-5.638,5.952-2.139,9.616-1.652,8.184,1.089,14.02,8.443t4.766,15.589a16.417,16.417,0,0,1-5.211,10.159,47.108,47.108,0,0,1-9.412,6.121,55.528,55.528,0,0,0-9.635,6.259A4.049,4.049,0,0,1,641.879,357.753Z" transform="translate(-202.628 -169.041)"/>
<path d="M495.227,377.408a4.932,4.932,0,0,1-3.477.225,3.716,3.716,0,0,1-2.524-2.116,8.328,8.328,0,0,1-.635-4.807,4.586,4.586,0,0,1,2.627-3.731q3.6-1.623,5.575,2.855a8.008,8.008,0,0,1,.677,4.2A3.949,3.949,0,0,1,495.227,377.408Zm-4.286-15.351a3.977,3.977,0,0,1-3.227.023,4.1,4.1,0,0,1-2.357-2.189q-1.152-2.616,1.96-8.615l5.96-10.869q2.982-6.393,1.446-9.883-1.936-4.4-7.664-6.278a13.341,13.341,0,0,0-9.953.164q-2.364,1.062-4.924,5.15t-3.423,4.476a3.717,3.717,0,0,1-3.2-.062,4.458,4.458,0,0,1-2.341-2.308q-1.322-3,3.115-8.546,3.972-4.966,7.347-6.49,7.54-3.4,16.315-.21T502.113,327.2a16.526,16.526,0,0,1,.8,11.416,47.9,47.9,0,0,1-4.864,10.192,56.444,56.444,0,0,0-4.982,10.43A4.122,4.122,0,0,1,490.941,362.057Z" transform="translate(-202.628 -169.041)"/><path d="M858.408,1732.6H298.239c.5-13.991.78-98.067,5.071-106.245,4.573-8.68,8.652,2.365,16.808,7.029,33.013,18.833,69.574,21.81,107.267,22.348,43.3.647,86.453-1.866,129.75-2.01,18.511-.07,39.716-2.653,58.226-2.222,78.227,1.864,154.005-5.418,228.791-28.7,4.362,16.5,8.3,44.482,11.312,73.392C856.6,1706.673,857.591,1722.38,858.408,1732.6Z" transform="translate(-202.628 -169.041)" style="fill:#586277"/>
<path d="M298.235,1732.6a3.739,3.739,0,0,1-3.714-3.635c-1.229-36.711.151-71.693,5.117-107.265a3.72,3.72,0,1,1,7.364,1.052c-4.908,35.146-6.263,69.677-5.048,105.96a3.743,3.743,0,0,1-3.59,3.885C298.32,1732.6,298.278,1732.6,298.235,1732.6Z" transform="translate(-202.628 -169.041)"/><path d="M858.331,1732.6a3.739,3.739,0,0,1-3.717-3.714c-.453-37.471-5.87-74.767-12.4-107.959a3.76,3.76,0,0,1,2.921-4.422,3.716,3.716,0,0,1,4.373,2.953c6.615,33.623,12.084,71.425,12.543,109.333a3.744,3.744,0,0,1-3.674,3.809Z" transform="translate(-202.628 -169.041)"/>
<path d="M491.142,683.162c2.208-4.193-14.826-11.532-20.007-23.384-6.308-13.9-.765-32.317,4.191-37.787,8.741-9.208,26.163-2.433,45.765-5.4,15.275-2.141,33-12.563,39.173-23.549,14.554-26.164,14.509-70.7,35.056-92.713,16.9-17.548,45.6-23.749,57.091-22.153,20.548,2.142,28.388,20.284,29.649,23.065a67.039,67.039,0,0,1,3.29,9.3c.406-.606.639-.956.639-.956s31.993-40.8,6.534-65.411c-11.086-11.487-34.066-26.755-67.365-33.273-118.1-25.162-166.452,11.942-166.452,11.942s-45.645,15.451-76.6,53.787c-9.643,12.4-8.606,46.174-14.961,60.213C357.817,559,356.78,585.621,359.529,608.5c4.283,42.538,95.167,114.82,109.631,120.382a20.855,20.855,0,0,0,3.544.949c-.134-1.54-.216-2.368-.216-2.368S485.1,694.875,491.142,683.162Z" transform="translate(-202.628 -169.041)" style="fill:#c37b7b"/><path d="M474.28,815.989c.157.312,3.924,6.378,8.243,7.309,59.413,47.872,69.565,52,97.7,127.067,11.9-24.341,16.021-51.273,28.518-75.349,4.6-13.579,19.169-20.975,22.825-34.452.562-7.727-2.892-24.88-2.048-22.843l3.2-27.032c2.14-2.52,8.834-7.335,10.906-9.618,105.421-13.986,75.061-19.449,80.88-123.3,1.895-13.945,11.764-21.1,8.564-30.309-3.6-11.4-21.9-9.436-27.4-18.963-13.228-22.271-11.305-77.485-23.61-107.253-9.232-30.006-58.293-29.928-86.742-.909-30.7,33.558-12.682,110.2-74.71,112.309-36.949,1.631-60.833,4.741-49.475,47.136,5.181,11.849,22.215,19.188,20.007,23.381-6.038,11.713-18.654,44.3-18.654,44.3a678.113,678.113,0,0,1,2.306,77.142C474.909,806.967,473.814,815.316,474.28,815.989Z" transform="translate(-202.628 -169.041)" style="fill:#ffddc0"/>
<path d="M723.072,685.241a3.736,3.736,0,0,1-3.71-3.552c-.041-.731-.952-18,2.067-27.4a60.049,60.049,0,0,1,4.9-10.342c2.945-5.322,5.727-10.348,4.938-14.605-.565-4.9-4.269-6.478-11.319-9.08A67.056,67.056,0,0,1,710,615.934c-6.217-3.511-13.7-9.944-16.378-28.679-.355-3.466-.668-6.936-.994-10.548-1.439-15.926-3.07-33.976-7.808-53.074-5.543-22.341-20.88-36.837-21.033-36.981a3.793,3.793,0,0,1-.221-5.313,3.687,3.687,0,0,1,5.249-.229A89.317,89.317,0,0,1,692.029,521.8c4.879,19.664,6.537,38.023,8,54.22.323,3.583.635,7.027.968,10.311,2.479,17.3,9.588,21.319,12.623,23.033a60.575,60.575,0,0,0,8.878,3.83c7.053,2.6,15.048,5.555,16.118,15.026,1.248,6.672-2.334,13.143-5.8,19.4a53.773,53.773,0,0,0-4.318,8.992c-2.588,8.065-1.724,24.492-1.716,24.656a3.746,3.746,0,0,1-3.5,3.964C723.21,685.24,723.141,685.241,723.072,685.241Z" transform="translate(-202.628 -169.041)"/><path d="M515.124,690.712c-16.393-.631-36.571-4.407-48.472-28.229-7.145-14.456-6.067-31.024,2.677-41.241,5.028-5.873,16.934-14.566,40.158-6.783a3.772,3.772,0,0,1,2.36,4.754,3.7,3.7,0,0,1-4.7,2.387c-14.176-4.753-25.613-3.133-32.2,4.565-6.8,7.948-7.466,21.185-1.655,32.939,10.085,20.184,26.875,23.5,41.967,24.088a3.762,3.762,0,0,1-.139,7.52Z" transform="translate(-202.628 -169.041)"/>
<path d="M501.7,658.529a3.7,3.7,0,0,1-2.956-1.476,23.191,23.191,0,0,0-8.812-6.621,3.777,3.777,0,0,1-2.108-4.874,3.706,3.706,0,0,1,4.818-2.131,30.534,30.534,0,0,1,12.017,9.066,3.791,3.791,0,0,1-.714,5.271A3.674,3.674,0,0,1,501.7,658.529Z" transform="translate(-202.628 -169.041)"/><path d="M650.545,705.031a3.7,3.7,0,0,1-3.08-1.648,3.788,3.788,0,0,1,.988-5.225c16.106-11.064,33.388-10.532,45.044-8.137a3.76,3.76,0,0,1-1.478,7.373c-10.26-2.109-25.42-2.605-39.389,6.988A3.67,3.67,0,0,1,650.545,705.031Z" transform="translate(-202.628 -169.041)"/><path d="M642.732,783.537c-11.266,3.646-14.059,20.785-14.059,20.785s-18.069-4.876-30.46-15.361c-14.105-11.668-23.116-28.078-23.116-28.078s15.139,9.208,42.581,12.308c28.027,2.233,79.892-3.829,79.892-3.829S658.187,778.341,642.732,783.537Z" transform="translate(-202.628 -169.041)" style="fill-rule:evenodd"/><path d="M639.764,553.818a3.686,3.686,0,0,1-2.81-1.293,3.784,3.784,0,0,1,.354-5.288c.639-.568,15.955-13.795,39.889-6.134a3.771,3.771,0,0,1,2.425,4.721,3.712,3.712,0,0,1-4.667,2.452c-19.806-6.337-32.242,4.183-32.763,4.633A3.686,3.686,0,0,1,639.764,553.818Z" transform="translate(-202.628 -169.041)"/><path d="M685.989,513.352a3.691,3.691,0,0,1-2.661-1.134,3.792,3.792,0,0,1,.065-5.319c10.491-10.361,18.924-36.714,13.442-51.556-5.377-14.559-29.157-31.13-64.2-34.63a3.762,3.762,0,0,1,.733-7.488c39.845,3.98,64.443,23.258,70.436,39.485,6.493,17.579-2.94,47.449-15.215,59.573A3.679,3.679,0,0,1,685.989,513.352Z" transform="translate(-202.628 -169.041)"/><path d="M439.959,442.245a3.677,3.677,0,0,1-2.437-.921,3.794,3.794,0,0,1-.369-5.307C470.573,397.1,515.96,399.3,556,401.24c22.209,1.079,43.177,2.092,60.168-3.741a3.71,3.71,0,0,1,4.716,2.353,3.769,3.769,0,0,1-2.325,4.77c-18.329,6.3-39.987,5.246-62.914,4.132-40.224-1.95-81.825-3.967-112.875,32.2A3.7,3.7,0,0,1,439.959,442.245Z" transform="translate(-202.628 -169.041)"/><path d="M377.6,532.59a3.725,3.725,0,0,1-3.548-2.642c-4.046-13.113-4.935-23.317-2.882-33.081,2.125-14.135,10.147-26.721,24.483-38.262,2.335-1.849,4.427-3.48,6.327-4.962,12.349-9.63,16.076-12.536,20.705-23.111a3.706,3.706,0,0,1,4.906-1.916,3.781,3.781,0,0,1,1.894,4.963C424.088,445.9,419.3,449.63,406.517,459.6c-1.888,1.473-3.965,3.093-6.261,4.91-12.777,10.285-19.908,21.317-21.776,33.7-1.835,8.763-1.026,17.519,2.668,29.491a3.772,3.772,0,0,1-2.442,4.712A3.693,3.693,0,0,1,377.6,532.59Z" transform="translate(-202.628 -169.041)"/><path d="M468.906,732.674c-3.053,0-6.522-2.994-17.754-12.685-7.588-6.547-17.979-15.515-32.614-27.318-32.4-26.733-81.322-67.1-59.258-147.71a3.71,3.71,0,0,1,4.575-2.621,3.765,3.765,0,0,1,2.591,4.628c-20.768,75.882,24.042,112.853,56.76,139.847,14.7,11.855,25.146,20.87,32.773,27.451,5.958,5.139,11.166,9.636,13.121,10.742,1.9-1.073,6.984-7.614,16.654-41.994l.377-1.337a3.709,3.709,0,0,1,4.6-2.585,3.77,3.77,0,0,1,2.555,4.65l-.375,1.33c-9.485,33.715-15.8,46.66-23.243,47.541A4.826,4.826,0,0,1,468.906,732.674Z" transform="translate(-202.628 -169.041)"/><path d="M646.515,481.583a3.726,3.726,0,0,1-3.567-2.705c-4.883-16.86-16.108-25.8-33.364-26.562a3.745,3.745,0,0,1-3.552-3.923,3.794,3.794,0,0,1,3.878-3.594c25.886,1.15,36.136,18.016,40.175,31.963a3.769,3.769,0,0,1-2.523,4.668A3.691,3.691,0,0,1,646.515,481.583Z" transform="translate(-202.628 -169.041)"/><path d="M623.579,486.687a3.676,3.676,0,0,1-2.485-.965c-10.014-9.111-22.165-5.649-22.287-5.614a3.719,3.719,0,0,1-4.615-2.552,3.77,3.77,0,0,1,2.524-4.668c.662-.2,16.291-4.649,29.351,7.242a3.79,3.79,0,0,1,.278,5.311A3.689,3.689,0,0,1,623.579,486.687Z" transform="translate(-202.628 -169.041)"/><path d="M524.809,614.133a3.762,3.762,0,0,1-.025-7.523c31.763-.21,36.538-24.371,42.066-52.345,4.514-22.839,9.181-46.453,29.258-59.125a3.691,3.691,0,0,1,5.123,1.2,3.786,3.786,0,0,1-1.187,5.182c-17.351,10.95-21.7,32.945-25.9,54.216-5.649,28.585-11.491,58.143-49.31,58.394Z" transform="translate(-202.628 -169.041)"/>
<path d="M669,607.182c-6.488,1.23-11.9-3.784-13.248-11.077s2.614-14.085,8.382-15.178,11.9,3.782,13.247,11.076S675.624,606.679,669,607.182Z" transform="translate(-202.628 -169.041)" style="fill-rule:evenodd"/><path d="M887.428,1059.716C841.574,821.068,837.915,911.232,674.291,832L641.94,782.557c-1.056.459-7.454,9.089-8.308,10.134,19.679,24.811-3.126,52.325-18.81,71.676,4.244-2.41,12.587-1.763,15.456,2.641-19.831-7.043-27.6,17.794-31.316,32.316l.981-2.683c-4.7,18.716-9.787,41.834-19.715,53.724-.122-.755-.313-1.452-.482-2.172-.96,1.334-1.855,2.154-2.657,2.286-16.834-67.958-43.036-86.315-94.566-127.181-9.524-4.734-8.641-7.522-7.791-16.567-7.8-6.01-14.259-11.95-17.458-17.745-12.5-11.542-33.308,31.91-24.6,42.058a46,46,0,0,0-4.476,1.906l1.491-6.91S313.919,865.06,251.21,903.691c-19.749,12.166-33.537,32.307-33.9,68.854,9.575,155.626-71.736,466.956,85.139,516.624l-1.123.091c6.2,65.272-5.731,75.767.426,121.953,39.654,59.732,145.513,41.986,229.058,42.18,106.405-6.859,274.813,7.264,320.158-41.012,8.379-15.636-.256-47.819-3.989-66.256-9.611-42.668-11.46-66.885-14.038-100.115-13.4,6.821-28.268,14.384-43.692,12.774-3.758-7.546-2.862-18.469-5.752-27-5.245-25.375-19.838-51.129-31.682-71.576,19.4-12.818,40.05-25.07,62.219-32.319,2.337-.623,18.452-.215,19.447,1.443,2.077,3.45,3.74,8.054,7.5,9.979,16.283,3.188,12.99,5.536,22.188,16.524,2.2,1.684,14.929,5.07,18.069,8.09,1.491,3.256,2.664,6.659,4.678,9.642,4.759,7.822,15.789,11.586,17.463,21.242-.6,21.885-21.74,31.9-38.016,41.191C1000.113,1407.9,899.35,1204.38,887.428,1059.716Z" transform="translate(-202.628 -169.041)" style="fill:#fff"/><path d="M631.3,843.3a3.732,3.732,0,0,1-3.651-3.068c-4.238-22.861-7.217-48.145,11.2-58.816,8.688-5.057,18.623-6.56,31.2-8.466,8.207-1.242,17.509-2.651,28.486-5.328,17.091-3.91,20.745-15.707,22.124-39.051.8-19.442.013-32.395-1.068-50.325l3.7-.447,3.711-.229c1.109,18.371,1.9,31.486,1.086,51.382-1.539,26.072-6.434,41.094-27.859,46-11.244,2.742-20.719,4.177-29.077,5.442-12.265,1.857-21.126,3.2-28.6,7.549-12.81,7.422-12.4,24.98-7.6,50.906a3.756,3.756,0,0,1-2.969,4.39A3.684,3.684,0,0,1,631.3,843.3Z" transform="translate(-202.628 -169.041)"/><path d="M382.155,1329.821a3.733,3.733,0,0,1-3.695-3.389L354.335,1082.4a3.719,3.719,0,1,1,7.4-.746l24.125,244.036a3.751,3.751,0,0,1-3.329,4.117Q382.34,1329.821,382.155,1329.821Z" transform="translate(-202.628 -169.041)"/><path d="M445.644,1659.538c-55.33,0-106.6-5.784-139.025-33.192a25.937,25.937,0,0,1-8.5-14.335c-3.28-15.224-2.956-18.269-2.85-19.271l.272-2.568c3.3-31.1,4.953-46.706,2.068-100.709a3.718,3.718,0,1,1,7.425-.4c2.918,54.607,1.242,70.42-2.1,101.916l-.273,2.569c-.049.473-.154,3.512,2.722,16.87a18.392,18.392,0,0,0,6,10.162c42.19,35.66,120.422,32.727,196.095,29.879,7.818-.294,15.572-.585,23.213-.826,24.947-.792,48.825-1.228,71.919-1.648,91.814-1.669,171.106-3.112,231.861-27.158,10.5-4.156,18.927-9.733,15.756-36.036-2.177-18.061-6.253-35.4-10.193-52.17-6.791-28.894-13.205-56.186-10.805-86.9a3.719,3.719,0,1,1,7.413.593c-2.308,29.536,3.976,56.268,10.627,84.57,3.988,16.97,8.113,34.52,10.34,53,3.426,28.414-5.69,38.12-20.428,43.953-62,24.541-141.909,25.993-234.438,27.676-23.068.417-46.922.852-71.818,1.643-7.627.243-15.367.534-23.173.828C487,1658.753,466.042,1659.538,445.644,1659.538Z" transform="translate(-202.628 -169.041)"/><path d="M473.568,728.255a3.709,3.709,0,0,0-4.173-3.237,3.755,3.755,0,0,0-3.2,4.222c1.417,10.871,2.39,22.215,2.965,33.93-.317.309-.652.638-1.028.96a55.488,55.488,0,0,0-8.929,9.2c-3.434,4.706-5.7,10.562-4.991,16.367.592,4.865,3.213,9.292,6.544,12.853,2.106,2.253,5.359,5.919,8.478,9.014-.049,1.164-.078,2.31-.135,3.479a3.747,3.747,0,0,0,3.531,3.942c.063,0,.125,0,.186,0a3.738,3.738,0,0,0,3.711-3.577C478.042,784.269,477.045,754.947,473.568,728.255Z" transform="translate(-202.628 -169.041)"/><path d="M637.035,801.6a36.955,36.955,0,0,1,1.9,8.159,37.844,37.844,0,0,1,.578,5.51c.029,3.974-1.181,7.839-2.378,11.624-1.127,3.56-2.325,7.246-4.854,9.973q-1.02-4.111-2.042-8.222a74.224,74.224,0,0,1-2.411-12.939,37.3,37.3,0,0,1,1.924-14.427c.561-1.647,1.166-4.782,3.347-4.662C635.02,796.72,636.438,800.108,637.035,801.6Z" transform="translate(-202.628 -169.041)"/><path d="M773.2,1398.977c-4.265-13.746-16.723-24.746-20.973-37.411,22.16-15.039,48.689-34.711,75.578-36.768,13.836,11.779,3.959,16.425,27.023,19.325,5.078,2.986,5.354,10.7,9.932,14.426,17,6.547,14.452,3.9,21.463,21.031,36.254,13.418,13.135,40.832-9.565,54.455-7.963,3.662-17.83,4.079-25.114-.82a2.414,2.414,0,0,0-3.878.373,79.591,79.591,0,0,1-53.1,26.366c-7.4.529-6.574-1.311-7.3-8.111A178.524,178.524,0,0,0,773.2,1398.977Z" transform="translate(-202.628 -169.041)" style="fill:#ffddc0"/><path d="M860.951,1440.235c-9.855,0-14.407-6.529-14.472-6.628a3.788,3.788,0,0,1,.985-5.225,3.692,3.692,0,0,1,5.164,1c.221.294,6.351,8.389,22.591-1.634.3-.188,30.053-19.448,23.658-35.913-.867-2.233-4.228-4.66-9.223-6.662a15.551,15.551,0,0,1-9.449-10.938c-1.041-4.581-2.725-7.781-4.742-9a9.418,9.418,0,0,0-5.448-1.266,14.194,14.194,0,0,1-13.657-9.848,15.1,15.1,0,0,0-3.545-6.23c-.654-.576-2.381-1.522-6.632-1.349a13.905,13.905,0,0,1-14.033-10.156,14.466,14.466,0,0,0-3.091-5.741c-5.659-6.3-42.9,11.942-74.143,32.909a3.7,3.7,0,0,1-5.154-1.055,3.791,3.791,0,0,1,1.043-5.216c16.422-11.02,71.008-45.881,83.755-31.7a21.961,21.961,0,0,1,4.731,8.708,6.6,6.6,0,0,0,6.6,4.736c5.209-.223,9.186.867,11.824,3.207,2.306,2.038,4.211,5.2,5.667,9.4,1.009,2.915,3.628,4.981,6.437,4.817a17.477,17.477,0,0,1,9.473,2.335c3.878,2.354,6.625,6.988,8.166,13.774a8.066,8.066,0,0,0,4.94,5.628c7.207,2.885,11.717,6.555,13.407,10.9,8.864,22.824-26.353,44.867-26.711,45.087C871.74,1438.7,865.724,1440.235,860.951,1440.235Z" transform="translate(-202.628 -169.041)"/><path d="M888.916,1404.558a3.728,3.728,0,0,0-4.41-2.9,42.564,42.564,0,0,1-12.641.766,3.663,3.663,0,0,0-3.845.926L856.3,1415.6a50.589,50.589,0,0,0-6,8.193,63.3,63.3,0,0,1-3.641,5.349c-13.321,16.861-29.946,20.417-50.994,24.919-2.439.519-4.925,1.052-7.46,1.616a3.759,3.759,0,1,0,1.6,7.346c2.515-.558,4.981-1.087,7.4-1.6,21.614-4.62,40.28-8.613,55.266-27.581a70.074,70.074,0,0,0,4.1-5.992,44.351,44.351,0,0,1,5.083-7.015l10.412-10.879c1.189.086,2.377.171,3.565.171a49.673,49.673,0,0,0,10.436-1.108A3.76,3.76,0,0,0,888.916,1404.558Z" transform="translate(-202.628 -169.041)"/><path d="M865.115,1439.821a3.762,3.762,0,0,1,0-7.523c.066,0,8.579-.158,22.065-6.6,17.89-8.545,45.957-36.688,45.114-75.827-.593-27.553-13.107-94.712-26.355-165.81-7.772-41.7-15.808-84.833-22.18-123.728-14.5-88.487-37.666-144.591-44.421-159.677a13.98,13.98,0,0,0-5.74-6.448c-12.153-7.055-30.843-13.661-57.142-20.2-28.331-7.04-63.623-21.857-86.978-31.66-6.539-2.745-12.186-5.116-16.542-6.841a3.777,3.777,0,0,1-2.108-4.874,3.7,3.7,0,0,1,4.818-2.132c4.392,1.738,10.089,4.129,16.683,6.9,23.146,9.718,58.122,24.4,85.9,31.3,27.357,6.8,46.126,13.465,59.068,20.979a21.412,21.412,0,0,1,8.813,9.867c6.85,15.3,30.34,72.161,44.985,161.553,6.358,38.813,14.386,81.9,22.149,123.562,13.308,71.414,25.876,138.867,26.482,167.039.921,42.7-29.8,73.442-49.373,82.793C875.2,1439.739,865.52,1439.821,865.115,1439.821Z" transform="translate(-202.628 -169.041)"/><path d="M353.008,1057.653a3.721,3.721,0,0,1-3.534-2.591c-17.591-54.429-46.355-94.021-87.936-121.042a3.789,3.789,0,0,1-1.119-5.2,3.7,3.7,0,0,1,5.139-1.131c43.078,27.993,72.839,68.892,90.984,125.031a3.773,3.773,0,0,1-2.378,4.746A3.68,3.68,0,0,1,353.008,1057.653Z" transform="translate(-202.628 -169.041)"/><path d="M487.429,1502.116c-64.6,0-154.391-6.6-181.9-8.751a57.982,57.982,0,0,1-24.311-7.408c-51.047-29-67.182-79.933-71.73-117.556-1.328-10.978-2.319-22.151-3.277-32.953-.783-8.839-1.594-17.978-2.581-26.927-2.867-25.944.987-111.161,4.715-193.573,2.527-55.878,4.915-108.658,5.25-142.441.337-33.885,12.011-57.444,35.688-72.028,62.343-38.407,178.071-77.616,179.233-78.008a3.714,3.714,0,0,1,4.7,2.38,3.771,3.771,0,0,1-2.353,4.758c-1.153.388-116.092,39.33-177.715,77.294-21.6,13.306-31.807,34.176-32.119,65.681-.338,33.917-2.728,86.762-5.258,142.706-3.714,82.123-7.556,167.04-4.754,192.4,1,9.031,1.811,18.211,2.6,27.088.953,10.744,1.938,21.855,3.251,32.716,4.34,35.894,19.658,84.45,67.993,111.908a50.666,50.666,0,0,0,21.239,6.467c29.5,2.307,130.757,9.739,195.279,8.613,82-1.431,171.772-3.994,215.843-12.139,29-5.363,56.327-10.761,66.732-12.833a1.123,1.123,0,0,0,.919-1.049c.707-9.894-2.43-39.08-10.955-59.594-11.893-28.629-27.916-46.76-32.11-51.215-17.415.173-172.026,1.488-228.147-6.168-56.873-7.761-126.174-20.605-131.814-21.654-3.14.064-28.686,1-44.219,14.04-7.155,6.01-20.94,21.187-21.078,21.341a3.683,3.683,0,0,1-5.253.229,3.792,3.792,0,0,1-.228-5.314c.58-.638,14.266-15.709,21.809-22.045,18.577-15.6,48.039-15.78,49.284-15.78a3.667,3.667,0,0,1,.677.062c.723.135,72.968,13.638,131.816,21.663,58.674,8.008,226.963,6.1,228.657,6.086a3.508,3.508,0,0,1,2.626,1.055c.829.811,20.483,20.235,34.836,54.784,9.1,21.91,12.291,52.234,11.515,63.051a8.666,8.666,0,0,1-6.9,7.89c-10.422,2.074-37.791,7.481-66.835,12.851-44.6,8.242-134.748,10.825-217.051,12.262C496.98,1502.082,492.275,1502.116,487.429,1502.116Z" transform="translate(-202.628 -169.041)"/><path d="M578.311,959.618a3.681,3.681,0,0,1-1.255-.22,3.773,3.773,0,0,1-2.245-4.81l27.7-78.17c1.112-6.615,6.642-18.228,20.27-17.147,8.381.658,11.512,6.439,14.537,12.028a57.145,57.145,0,0,0,5.408,8.616c4.764,6.024,9.967,20.341,13.45,31.125,1.671-7.464,3.727-17.2,5.425-26.964,3.086-17.749,6.864-41.367,7.794-47.2L638.54,784.131a3.785,3.785,0,0,1,1.306-5.153,3.7,3.7,0,0,1,5.093,1.321l31.543,53.918a3.809,3.809,0,0,1,.471,2.512c-.045.279-4.487,28.3-8.026,48.652-3.557,20.458-8.649,40.752-8.7,40.955a3.708,3.708,0,0,1-7.186.079c-2.516-9.139-10.317-34.464-16.119-41.8a63.531,63.531,0,0,1-6.123-9.7c-3-5.548-4.39-7.813-8.588-8.142-10.506-.861-12.33,10.649-12.4,11.14a3.7,3.7,0,0,1-.177.717l-27.819,78.5A3.722,3.722,0,0,1,578.311,959.618Z" transform="translate(-202.628 -169.041)"/><path d="M608.608,874.117a3.666,3.666,0,0,1-2.283-.8,3.79,3.79,0,0,1-.646-5.278c.162-.212,16.246-21.09,22.539-30.6,19.116-28.892,1.28-41.967.51-42.511a3.8,3.8,0,0,1-.946-5.223,3.68,3.68,0,0,1,5.141-.989c.251.172,24.822,17.621,1.474,52.908-6.442,9.736-22.187,30.176-22.853,31.041A3.7,3.7,0,0,1,608.608,874.117Z" transform="translate(-202.628 -169.041)"/><path d="M530.809,865.184a3.662,3.662,0,0,1-2.11-.667c-2.008-1.4-49.411-34.638-71.386-58.99-6.7-7.427-9.406-15.154-8.036-22.965,2.676-15.247,20.194-24.626,20.939-25.016a3.7,3.7,0,0,1,5.01,1.6,3.786,3.786,0,0,1-1.573,5.073c-.152.081-15.041,8.091-17.057,19.682-.937,5.383,1.153,10.953,6.211,16.557,21.4,23.719,69.634,57.535,70.118,57.873a3.79,3.79,0,0,1,.946,5.234A3.7,3.7,0,0,1,530.809,865.184Z" transform="translate(-202.628 -169.041)"/><path d="M590.185,1653.116a3.743,3.743,0,0,1-3.718-3.784l.932-151.7a3.719,3.719,0,1,1,7.437.048l-.933,151.7A3.738,3.738,0,0,1,590.185,1653.116Z" transform="translate(-202.628 -169.041)"/><path d="M592.123,1354.067a3.77,3.77,0,0,1-3.72-3.888c.062-1.86,6.222-186.293,6.083-215.755-.35-74.364-18.173-190.289-29.538-209.792-1.027-1.764-2.447-5.164-4.412-9.868-6.1-14.6-20.37-48.775-34.306-50.906-3.783-.576-7.5,1.4-11.359,6.03C489.64,900.2,483.679,918,483.621,918.172a3.732,3.732,0,0,1-2.984,2.551,3.661,3.661,0,0,1-3.59-1.546c-.951-1.363-23.41-33.647-32.434-54.484-8.882-20.509-17.842-41.822-17.932-42.035a3.805,3.805,0,0,1,.216-3.38l22.653-38.97a3.7,3.7,0,0,1,5.091-1.336,3.789,3.789,0,0,1,1.32,5.15l-21.7,37.335c2.32,5.5,9.771,23.142,17.167,40.215,6.546,15.119,21,37.314,27.895,47.582,3.845-8.055,12.391-23.221,29.863-44.209,5.586-6.714,11.7-9.617,18.158-8.624,16.659,2.547,29.4,29.941,40.046,55.416,1.712,4.1,3.191,7.643,3.967,8.974,13.093,22.466,30.233,142.228,30.568,213.578.14,29.606-6.024,214.183-6.085,216.043A3.741,3.741,0,0,1,592.123,1354.067Z" transform="translate(-202.628 -169.041)"/><path d="M762.74,748.839c-4.8-13.1,18.243-56.091.848-60.068-23.084-5.281-37.5-6.756-55.9-4.817-8.654,8.621-25.59,17.923-23.285,32.285.215,1.349-15.206,8.1-17.337,18.932-1.811,22.1-4.09,48.133,1.357,69.677a8.375,8.375,0,0,1-.481,9.4c-28.471,48.766-.876,67.549,12.249,110.73-1.043-3.427,47.466-21.188,73.876-24.632C741.576,846.759,809.506,794.48,762.74,748.839ZM742.716,705.6c-1.069,2.793-1.569,5.814-2.4,8.685-.743,2.567-1.583,5.445-3.361,7.5-1.763,2.037-4.131,1.915-6.371.769-2.769-1.42-5.073-3.646-7.608-5.428-3.379-2.377-7.274-3.719-11.088-5.188a1.716,1.716,0,0,1-.388-.248c-1.454.651-3.194-1.483-1.9-3a27.224,27.224,0,0,1,12.754-8.015c6.3-1.709,12.364,2.826,18.655,2.661A1.8,1.8,0,0,1,742.716,705.6Z" transform="translate(-202.628 -169.041)" style="fill:#ffddc0"/><path d="M760.687,746.535a3.645,3.645,0,0,1-1.231-.215,3.77,3.77,0,0,1-2.276-4.794c7.756-22.353,11.939-44.541,8.952-47.481-10.031-6.337-51.728-11.6-56.836-8.3-5.737,4.5-20.842,18.437-23.083,22.88a3.39,3.39,0,0,0,2.241,1.236,3.781,3.781,0,0,1,3.315,4.1,3.716,3.716,0,0,1-3.958,3.391,10.452,10.452,0,0,1-8.968-6.976c-2.655-8.062,25.64-30.375,25.926-30.6,8.26-6.488,55.206,1.5,65.348,7.916,9.726,6.149.465,37.926-5.922,56.32A3.721,3.721,0,0,1,760.687,746.535Z" transform="translate(-202.628 -169.041)"/><path d="M666.589,775.987a3.739,3.739,0,0,1-3.717-3.716c-.012-1.027-.3-25.266,0-34.815.391-12.364,24.1-27.432,36.369-31.188,11.566-3.551,48.418,22.143,64.628,37.3,12.8,11.975,13.643,17.213,12.945,20.439a3.711,3.711,0,0,1-4.429,2.869,3.763,3.763,0,0,1-2.85-4.414c-.026-2.073-6.087-10.877-24.84-25.19-22.316-17.034-39.755-24.876-43.3-23.808-12.089,3.7-30.871,17.341-31.087,24.229-.3,9.383,0,34.233,0,34.483a3.741,3.741,0,0,1-3.673,3.807Z" transform="translate(-202.628 -169.041)"/><path d="M755.078,901.74a3.722,3.722,0,0,1-3.565-2.7l-5.008-17.217a10.747,10.747,0,0,1,.5-7.37c18.808-42.31,31.362-76.9,29.85-82.247-4.019-7.582-64.979-44.778-74.116-42.567-6.829,5.517-17.389,44.553-16.735,50.3.256,1.54,4.145,7.66,17.078,20.731a6.394,6.394,0,0,0,4.813,1.87,5.132,5.132,0,0,0,3.8-1.886c.746-.932,1.59-2.575.318-6.083-3.819-10.515-12.567-19.084-12.655-19.169a3.793,3.793,0,0,1-.109-5.318,3.689,3.689,0,0,1,5.257-.109c.41.4,10.084,9.873,14.487,22,2.378,6.55.485,10.91-1.52,13.414a12.448,12.448,0,0,1-9.187,4.661,13.671,13.671,0,0,1-10.46-4.061c-18.465-18.663-19.006-23.4-19.209-25.191-.818-7.179,10.217-50.235,19.906-57.371,2.011-1.477,4.881-1.712,9.038-.753,19.122,4.439,71.267,37.328,75.93,46.155,3.5,6.637-6.49,36.483-29.7,88.706a3.152,3.152,0,0,0-.146,2.16l5.007,17.218a3.769,3.769,0,0,1-2.518,4.669A3.728,3.728,0,0,1,755.078,901.74Z" transform="translate(-202.628 -169.041)"/><path d="M681.451,814.048c-5.321,0-9.423-3.719-11.045-5.19-6.531-5.917-9.625-15.747-8.276-26.3,1.147-8.987,5.138-17.311,8.661-24.657,5.229-10.912,11.156-23.282,21.787-31.454,2.074-1.6,5.28-3.731,9.142-3.858a18.4,18.4,0,0,1,7.8,1.961,441.258,441.258,0,0,1,67.232,36.516,3.787,3.787,0,0,1,1.076,5.206,3.69,3.69,0,0,1-5.146,1.089,433.938,433.938,0,0,0-66.1-35.9,11.6,11.6,0,0,0-4.624-1.353c-1.323.043-2.876.783-4.884,2.328-9.215,7.083-14.73,18.592-19.6,28.748-3.433,7.163-6.985,14.568-7.977,22.338-.8,6.246.323,14.709,5.862,19.728,4.1,3.717,6.246,3.766,8.376,2.636a3.688,3.688,0,0,1,5.019,1.581,3.78,3.78,0,0,1-1.563,5.078A12.135,12.135,0,0,1,681.451,814.048Z" transform="translate(-202.628 -169.041)"/><path d="M778.7,790.74a3.667,3.667,0,0,1-.851-.1,3.765,3.765,0,0,1-2.773-4.521c1.976-8.528,1.312-14.058-2.152-17.933a3.792,3.792,0,0,1,.264-5.313,3.688,3.688,0,0,1,5.252.267c6.833,7.642,5.485,17.754,3.878,24.7A3.731,3.731,0,0,1,778.7,790.74Z" transform="translate(-202.628 -169.041)"/><path d="M735.122,728.736a3.671,3.671,0,0,1-1.364-.265,3.776,3.776,0,0,1-2.093-4.879c1.76-4.507,3.642-9.928,5.408-15.565-1.723-.26-3.195-.476-4.507-.667a130.489,130.489,0,0,1-13.276-2.427,3.764,3.764,0,0,1-2.777-4.517,3.711,3.711,0,0,1,4.466-2.809,123.337,123.337,0,0,0,12.65,2.307c2.186.32,4.818.705,8.3,1.251a3.722,3.722,0,0,1,2.425,1.49l.4.554a3.8,3.8,0,0,1,.562,3.318c-2.132,7.12-4.524,14.163-6.736,19.827A3.722,3.722,0,0,1,735.122,728.736Z" transform="translate(-202.628 -169.041)"/><path d="M701.928,796.453a3.67,3.67,0,0,1-2.115-.669,3.791,3.791,0,0,1-.94-5.235,38.869,38.869,0,0,0,3.487-7.587,47.6,47.6,0,0,1,3.855-8.437,3.7,3.7,0,0,1,5.138-1.136,3.788,3.788,0,0,1,1.122,5.2,41.722,41.722,0,0,0-3.176,7.085,44.217,44.217,0,0,1-4.311,9.163A3.707,3.707,0,0,1,701.928,796.453Z" transform="translate(-202.628 -169.041)"/><path d="M732.684,805.677a3.7,3.7,0,0,1-1.3-.239c-12.678-4.792-20.012-8.982-27.4-19.837a3.79,3.79,0,0,1,.956-5.231,3.692,3.692,0,0,1,5.171.967c6.334,9.309,12.225,12.652,23.874,17.054a3.774,3.774,0,0,1,2.182,4.84A3.723,3.723,0,0,1,732.684,805.677Z" transform="translate(-202.628 -169.041)"/><path d="M710.412,712.539a3.707,3.707,0,0,1-3.157-1.767,3.788,3.788,0,0,1,1.183-5.184c3.262-2.063,6.872-4.486,8.915-6.814a3.689,3.689,0,0,1,5.249-.318,3.794,3.794,0,0,1,.314,5.31c-2.668,3.043-6.824,5.854-10.536,8.2A3.669,3.669,0,0,1,710.412,712.539Z" transform="translate(-202.628 -169.041)"/><path d="M695.255,856.715a3.658,3.658,0,0,1-1.188-.2,3.775,3.775,0,0,1-2.336-4.767,82.787,82.787,0,0,1,16.191-28.222,3.687,3.687,0,0,1,5.249-.314,3.79,3.79,0,0,1,.311,5.309,75.2,75.2,0,0,0-14.7,25.631A3.724,3.724,0,0,1,695.255,856.715Z" transform="translate(-202.628 -169.041)"/><path d="M680.194,926.991a3.724,3.724,0,0,1-3.52-2.544c-.543-1.614-1.055-3.168-1.554-4.682-3.063-9.3-5.483-16.644-11.247-24.861-9.519-13.576-14.492-24.313-13.526-42.156.5-9.342,3.852-17.647,7.4-26.438,3.085-7.654,6.276-15.57,8.042-25.09a3.72,3.72,0,1,1,7.309,1.387c-1.906,10.27-5.39,18.915-8.465,26.544-3.447,8.545-6.422,15.927-6.859,24.008-.851,15.727,3.429,24.931,12.166,37.391,6.4,9.133,9.107,17.337,12.237,26.835.493,1.5,1,3.036,1.539,4.628a3.772,3.772,0,0,1-2.319,4.775A3.633,3.633,0,0,1,680.194,926.991Z" transform="translate(-202.628 -169.041)"/><path d="M780.636,1346.482a3.72,3.72,0,0,1-3.48-2.435c-.34-.915-34.167-91.979-50.763-147.045-9.024-29.939-18.853-69.413-27.526-104.241-7.617-30.591-14.195-57.009-18.913-71.961-10.144-32.142-25.087-77.8-25.236-78.255a3.786,3.786,0,0,1,1.2-4.117c37.717-30.591,82.727-46.6,117.42-41.8a3.724,3.724,0,0,1,2.967,2.38c.684,1.8,68.506,180.706,82.41,216.205,5.194,13.259,11.646,28.812,17.884,43.852,10.93,26.348,21.253,51.232,25.108,64.232,5.99,20.195,14.042,53.407,14.123,53.742a3.764,3.764,0,0,1-2.727,4.546,3.724,3.724,0,0,1-4.5-2.76c-.08-.329-8.088-33.356-14.022-53.365-3.742-12.619-13.992-37.326-24.842-63.482-6.253-15.076-12.719-30.665-17.941-44-13.1-33.438-73.927-193.833-81.638-214.174-31.84-3.482-72.623,11.211-107.573,38.872,3.27,10.01,15.655,47.979,24.445,75.834,4.788,15.175,11.392,41.7,19.04,72.41,8.65,34.743,18.458,74.12,27.428,103.886,16.527,54.833,50.271,145.675,50.609,146.586a3.773,3.773,0,0,1-2.17,4.845A3.654,3.654,0,0,1,780.636,1346.482Z" transform="translate(-202.628 -169.041)"/></svg>