<svg id="_Layer_" data-name="&lt;Layer&gt;" xmlns="http://www.w3.org/2000/svg" viewBox="0 0 1181.876 1629.811">
<defs>
<style>
.cls-1{fill:#ef6f54;}
.cls-2{fill:#ffddc0;}
.cls-3{fill:#ffce7e;}
.cls-4{fill-rule:evenodd;}
</style>
</defs>
<path class="cls-1" d="M1729.966,1230.273c6.606-20.443,12.463-39.534,17.644-57.433q19.237-7.255,38.467-14.514c18.981-7.161,38.541-14.679,52.984-28.61,2.546-2.452,5.013-5.3,5.492-8.75.355-2.568-.441-5.143-1.229-7.62q-17.13-53.8-34.262-107.609c-7.67-24.1-15.345-48.2-24.213-71.908l-2.631,15.264c-2.145-30.695-8.017-55.736-13.895-82.356-16.923-76.649-84.306-194.092-84.306-194.092s-1.44.093-4.143.258c.189.279.375.564.561.849-3.415.027-6.83.069-10.245.046-1.978-.014-3.954.009-5.929.016-15.895.89-40.575,2.176-71.047,3.445q-13.779,1.17-27.523,2.672c-41.975,5.916-97.482,19.888-123.918,26.868-15.994-1.671-33.758.1-51.072,4.169-29.1,6.84-56.553,18.93-84.551,29.235a717.084,717.084,0,0,1-108.867,30.548c14.561,3.51,26.051,14.858,32.986,27.77s9.966,27.407,12.92,41.683q7.162,34.613,14.323,69.226c.547,2.636,1.131,5.326,1.886,7.946L1258.083,919c12.544,86.592.3,121.84.3,121.84-17.224,4.336-59.617,9.261-108.345,11.664l-4.474,5.526c0,9.49-40.614,185.384-49.64,356.2s0,310.976,0,310.976H1640.6s-.406-46.123-.393-90.2c.006-21.063.107-41.659.393-56.531C1641.483,1532.493,1657.763,1453.65,1729.966,1230.273Z" transform="translate(-717.712 -100.094)"/>
<path class="cls-2" d="M1894.679,1359.481c-2.256-59.129-48.847-225.383-55.618-229.765-14.443,13.931-34,21.449-52.984,28.61q-19.231,7.26-38.467,14.514c-5.181,17.9-11.038,36.99-17.644,57.433-72.2,223.377-88.483,302.22-89.37,348.208-.286,14.872-.387,35.468-.393,56.531l.393.41s139.008-98.552,170.6-140.161S1896.938,1418.611,1894.679,1359.481Z" transform="translate(-717.712 -100.094)"/>
<path class="cls-2" d="M1251.117,878.87c-11.209-55.941-35.956-95.351-35.956-95.351-6.449.145-47.182-1.322-53.631-1.2-15.727.3-31.416,1.136-47.144,1.28-27.527.252-55.231-.055-82.531,3.891-10.167,1.47-20.282,3.5-30.384,5.357-9.362,1.723-18.7,3.63-27.858,6.217-16.89,4.773-34.591,12.224-45.089,26.546a1.972,1.972,0,0,1-.739.947c-.156.223-.346.413-.5.639-1.393,2.08-4.836.141-3.437-1.95.291-.434.655-.8.957-1.223a114.22,114.22,0,0,0,.759-13.019c0-21.36-4.874-42.553-10.628-63.063-6.186-22.045-13.831-43.665-20.986-65.424-7.3-22.215-13.121-44.816-19.8-67.21-7.715-25.859-15.8-51.621-22.664-77.712-6.763-25.724-12.161-51.736-15.012-78.156-1.471-13.627-2.9-27.342-2.188-41.059a148.953,148.953,0,0,1,2.559-19.062,57.557,57.557,0,0,1,4.236-14.207C848.806,368.5,866,360.2,879.872,349.2c17.37-13.775,29.966-31.89,45.774-47.159,7.331-7.08,15.844-14.511,26.1-17.055,11.762-2.917,24.579-1.633,36.592-1.583,3.541.016,7.157.1,10.6-.827,3.958-1.07,7.534-3.294,10.99-5.384,4.859-2.937,9.57-6.537,14.845-8.75a17.967,17.967,0,0,1,2.188-.676l-.3-.992c2.761.1,4.878.178,6.059.178,14.292,0,22.189-16.074,16.925-25.083-2.975-5.089-9.382-6.9-19.565-9.285,8.2-14.437,17.295-31.4,17.7-36.4.753-9.188-5.264-13.444-6.769-15.633l-6.342,4.988a21.7,21.7,0,0,0,1.077-9.128c-2.256-13.629-95.538-49.106-112.066-54.99-12.514-4.455-23.082,6.781-23.082,6.781s-133.361,137.41-147.65,172.988-24.07,58.938-27.076,93.248-5.643,127.92,0,278.213S713.571,973.4,773.263,993.757c106.61,36.348,173,52.174,261.739,58.4,36.391,2.552,77.582,2.2,115.036.348,48.728-2.4,91.121-7.328,108.345-11.664,0,0,12.244-35.248-.3-121.84C1256.3,906.678,1254.012,893.32,1251.117,878.87Z" transform="translate(-717.712 -100.094)"/>
<path class="cls-3" d="M1293.471,349.405c1.417-13.761,3.126-66.22,9.188-77.422,13.971-24.721,30.7-12.166,36.312,5.947,5.478,17.086,15.017,65.017,44.727,78.051,19.361,8.05,75.237-.968,75.237-.968a193.007,193.007,0,0,0,48.036,29.572c24.681,15.749,78.708,9.05,78.708,9.05s68.814-25.252,79.341-2.524c4.042,8.826,12.832,27.87,10.853,43.481l6.332.355s18.8-65.025,13.325-122.856c-.049-65.826-29.136-139.548-69.348-166.956-21.233-14.086-49.837-10.539-81.642-14.956-37.371-5.815-50.13-20.953-79.544-23.577-25.041-2.118-68.993,7.512-68.993,7.512s-71.7,36.058-119,77.453c-28.015,24.373-35.63,48.308-48.927,78.171-11.718,25.486-27.132,55.612-8.13,77.29,45.852,53.878,41.414,77.417,41.414,77.417l19.848-11.809-6.846-28.467S1291.422,374.738,1293.471,349.405Z" transform="translate(-717.712 -100.094)"/>
<path class="cls-2" d="M1674.7,440.07a29.42,29.42,0,0,0,1.178-5.478c1.979-15.611-6.811-34.655-10.853-43.481-10.527-22.728-79.341,2.524-79.341,2.524s-54.027,6.7-78.708-9.05a193.007,193.007,0,0,1-48.036-29.572s-55.876,9.018-75.237.968c-29.71-13.034-39.249-60.965-44.727-78.051-5.613-18.113-22.341-30.668-36.312-5.947-6.062,11.2-7.771,63.661-9.188,77.422-2.049,25.333-19.111,34.764-19.111,34.764l6.846,28.467,12.184,50.681s2.732,28.919,4.109,47.558c1.917,22.751,6.224,47.3,24.054,76.434,13.843,23.363,37.873,42.329,55.929,56.809,22.562,16.011,37.823,25.613,37.823,25.613l30.2.436a233.83,233.83,0,0,1,5.692,27.66q27.166-5.361,54.525-9.777,29.869-4.765,59.965-8.119,13.74-1.514,27.523-2.672,17.106-1.455,34.256-2.361c12.258-.63,24.521-1.038,36.791-1.084,1.975-.007,3.951-.03,5.929-.016,3.415.023,6.83-.019,10.245-.046-.186-.285-.372-.57-.561-.849-.479-.714-.964-1.416-1.43-2.169-36.8-41.867-31.717-190.162-31.717-190.162S1666.943,462.976,1674.7,440.07Z" transform="translate(-717.712 -100.094)"/>
<path d="M1426.01,677.34a47.91,47.91,0,0,1-16.669-2.7c-21.781-8.028-45.861-30.218-55.2-39.386-31.868-32.468-52.75-66.254-57.354-92.757a473.933,473.933,0,0,1-6.62-48.564c-.85-9.13-1.653-17.752-3.53-28.55-2.106-11.249-5.224-21.889-8.526-33.154-2.2-7.514-4.479-15.284-6.407-23.206-.03-.165-.059-.314-.09-.481-.192-1.468-.636-3.55-1.15-5.964-.83-3.9-1.862-8.746-2.616-14.471a4.727,4.727,0,0,1,4.185-5.255,4.81,4.81,0,0,1,5.413,4.062c.708,5.37,1.7,10.025,2.5,13.764.528,2.479.988,4.635,1.237,6.416,1.867,7.638,4.09,15.225,6.242,22.565,3.22,10.986,6.55,22.347,8.75,34.1,1.948,11.211,2.767,20.01,3.635,29.323a466.331,466.331,0,0,0,6.515,47.791c4.3,24.76,24.26,56.754,54.764,87.835,18.74,18.393,37.61,31.956,51.7,37.149,27.891,10.34,86.671-19.45,129.5-51.495,27.915-20.728,36.121-34.325,48.448-57.176a4.906,4.906,0,0,1,6.332-2.069l.192.086h0a4.628,4.628,0,0,1,2.051,6.336c-12.611,23.367-21.652,38.386-51.128,60.273C1511.553,649.223,1461,677.34,1426.01,677.34Z" transform="translate(-717.712 -100.094)"/><path d="M1623.554,489.772a4.839,4.839,0,0,1-4.546-3.085,4.66,4.66,0,0,1,2.886-6.024c28.469-10.1,43.678-26.227,47.867-50.747,2.748-17.5-4.038-34.248-16.888-41.627-12.607-7.234-28.6-4.487-45.048,7.737a4.933,4.933,0,0,1-6.782-.872,4.606,4.606,0,0,1,.9-6.585c19.5-14.5,39.861-17.55,55.86-8.364,16.215,9.31,24.862,29.88,21.516,51.188-4.759,27.88-22.454,46.862-54.1,58.092A4.966,4.966,0,0,1,1623.554,489.772Z" transform="translate(-717.712 -100.094)"/><path d="M1628.055,442.183a4.93,4.93,0,0,1-1.606-.269,4.655,4.655,0,0,1-2.958-5.97,42.354,42.354,0,0,1,12.459-17.029,4.941,4.941,0,0,1,6.808.662,4.6,4.6,0,0,1-.684,6.609,33.166,33.166,0,0,0-9.453,12.874A4.848,4.848,0,0,1,1628.055,442.183Z" transform="translate(-717.712 -100.094)"/><path class="cls-4" d="M1440.078,669.8s46.589-14.136,82.558-35.316c33.989-19.889,69.485-69.224,69.485-69.224s-27.47,77.6-63.417,107.136c-34.1,27.217-80.193,28.753-80.193,28.753Z" transform="translate(-717.712 -100.094)"/><path d="M1373.816,522.828a4.914,4.914,0,0,1-3.163-1.143c-21.865-18.347-16.589-27.8-7.422-38.26,3.985-4.545,8.109-9.245,8.808-16.28,1.4-16.841-4.653-35.618-17.512-54.226a4.613,4.613,0,0,1,1.326-6.516,4.933,4.933,0,0,1,6.713,1.285c14.085,20.387,20.694,41.234,19.113,60.287-1,10.045-6.588,16.417-11.076,21.537-6.839,7.8-9.958,11.357,6.382,25.067a4.6,4.6,0,0,1,.494,6.624A4.888,4.888,0,0,1,1373.816,522.828Z" transform="translate(-717.712 -100.094)"/><path d="M1391.262,577.632a56.572,56.572,0,0,1-19.235-3.145,4.655,4.655,0,0,1-2.838-6.043,4.878,4.878,0,0,1,6.228-2.753c23.409,8.492,60.806-3.567,73.938-31.847a4.9,4.9,0,0,1,6.4-2.353,4.641,4.641,0,0,1,2.422,6.211C1446.193,563.518,1416.634,577.632,1391.262,577.632Z" transform="translate(-717.712 -100.094)"/><path d="M1400.65,358.577a4.865,4.865,0,0,1-4.269-2.478,4.626,4.626,0,0,1,1.979-6.358c35.88-18.677,66.693-6.546,67.988-6.019a4.651,4.651,0,0,1,2.6,6.144,4.884,4.884,0,0,1-6.322,2.525c-.492-.193-28.148-10.786-59.689,5.627A4.934,4.934,0,0,1,1400.65,358.577Z" transform="translate(-717.712 -100.094)"/><path d="M1273.149,379.6a4.888,4.888,0,0,1-3.546-1.5,4.589,4.589,0,0,1,.232-6.612c.789-.717,19.682-17.466,49.957-8.781a4.677,4.677,0,0,1,3.27,5.835,4.87,4.87,0,0,1-6.01,3.172c-24.8-7.118-39.986,6.08-40.619,6.646A4.932,4.932,0,0,1,1273.149,379.6Z" transform="translate(-717.712 -100.094)"/><path d="M1674.7,444.766a4.913,4.913,0,0,1-3.242-1.209,4.6,4.6,0,0,1-.366-6.616c.344-.376,34.106-38.689,17.261-134.209a4.712,4.712,0,0,1,3.953-5.421,4.819,4.819,0,0,1,5.586,3.837c17.726,100.518-18.067,140.417-19.6,142.067A4.9,4.9,0,0,1,1674.7,444.766Z" transform="translate(-717.712 -100.094)"/><path d="M1710.648,276.249a4.913,4.913,0,0,1-2.752-.837c-24.73-16.623-30.394-30.967-38.232-50.819a294.283,294.283,0,0,0-16.513-36.195c-8.5-15.853-40.55-66.049-96.583-47.751a4.871,4.871,0,0,1-6.13-2.955,4.668,4.668,0,0,1,3.042-5.949c42.739-13.95,83.195,5.6,108.236,52.282a306.265,306.265,0,0,1,16.986,37.208c7.752,19.634,12.431,31.486,34.706,46.459a4.609,4.609,0,0,1,1.222,6.534A4.878,4.878,0,0,1,1710.648,276.249Z" transform="translate(-717.712 -100.094)"/><path d="M1237.28,205.367a4.792,4.792,0,0,1-4.793-4.1,4.725,4.725,0,0,1,4.187-5.252c35.109-4.354,59.916-23.452,86.181-43.673l6.143-4.719C1400.052,94.4,1468.6,85.7,1527.286,122.427a4.617,4.617,0,0,1,1.443,6.493,4.933,4.933,0,0,1-6.691,1.4c-55.7-34.868-118.644-26.564-187.089,24.706l-6.08,4.672c-27.351,21.055-53.186,40.945-90.97,45.629A4.98,4.98,0,0,1,1237.28,205.367Z" transform="translate(-717.712 -100.094)"/><path d="M1260.44,430.3a5.028,5.028,0,0,1-.859-.075,4.712,4.712,0,0,1-3.91-5.452c3.409-18.447-8.1-32.511-20.284-47.4-10.826-13.229-22.02-26.908-24.391-44.916-5-38.014,18.771-84.328,42.977-111.272a4.94,4.94,0,0,1,6.827-.453,4.6,4.6,0,0,1,.466,6.626c-22.83,25.412-45.3,68.77-40.671,103.91,2.029,15.407,12.369,28.042,22.37,40.262,12.985,15.867,26.413,32.275,22.232,54.9A4.8,4.8,0,0,1,1260.44,430.3Z" transform="translate(-717.712 -100.094)"/><path class="cls-4" d="M1308.039,443.736c-2.411-10.151,2.727-20.193,10.141-21.112,7.28-1.948,15.779,5.358,18.192,15.508s-2.725,20.193-10.14,21.112C1317.89,461.323,1309.394,454.017,1308.039,443.736Z" transform="translate(-717.712 -100.094)"/><path class="cls-4" d="M1426.686,429.023c-1.351-10.281,3.787-20.323,12.261-21.374s16.973,6.255,18.325,16.537-3.783,20.324-12.258,21.374S1428.041,439.306,1426.686,429.023Z" transform="translate(-717.712 -100.094)"/><path d="M1260.995,393.658a4.844,4.844,0,0,1-4.448-2.846,4.644,4.644,0,0,1,2.539-6.167c24.95-10.392,28.71-32.539,26.689-64.9-1.213-34.974,15.552-52.689,16.266-53.426a4.945,4.945,0,0,1,6.841-.2,4.6,4.6,0,0,1,.223,6.623c-.17.181-14.727,15.884-13.665,46.565,1.907,30.528-.709,60.721-32.539,73.977A4.928,4.928,0,0,1,1260.995,393.658Z" transform="translate(-717.712 -100.094)"/><path d="M1420.3,369.832c-38.04,0-54.131-9.067-71.205-38.052-5.2-8.828-8.893-21.183-12.8-34.263-10.534-35.237-19.89-59.8-44.692-54.969a4.837,4.837,0,0,1-5.7-3.679,4.705,4.705,0,0,1,3.792-5.53c35.427-6.9,46.775,31.056,55.891,61.561,3.746,12.528,7.284,24.362,11.908,32.217,15.622,26.515,27.552,34.548,71.385,33.181a4.81,4.81,0,0,1,4.989,4.541,4.757,4.757,0,0,1-4.681,4.845Q1424.546,369.828,1420.3,369.832Z" transform="translate(-717.712 -100.094)"/><path d="M1536.535,395.607a112.712,112.712,0,0,1-53.712-13.893,116.31,116.31,0,0,1-55.516-66.9,4.674,4.674,0,0,1,3.188-5.877,4.866,4.866,0,0,1,6.055,3.1,106.886,106.886,0,0,0,51.011,61.488c23.731,12.931,51.183,16.163,75.335,8.869a4.871,4.871,0,0,1,6.058,3.088,4.673,4.673,0,0,1-3.184,5.879A101.04,101.04,0,0,1,1536.535,395.607Z" transform="translate(-717.712 -100.094)"/><path d="M1386.054,206.779a5,5,0,0,1-.879-.079,4.707,4.707,0,0,1-3.886-5.465c5.052-26.8,40.505-45.988,72-55.01a4.859,4.859,0,0,1,6.011,3.174,4.677,4.677,0,0,1-3.27,5.834c-27.417,7.855-60.948,25.058-65.217,47.693A4.805,4.805,0,0,1,1386.054,206.779Z" transform="translate(-717.712 -100.094)"/>
<path d="M1673.863,677.96a4.808,4.808,0,0,1-4.732-3.743c-2.689-12.6-5.6-25.065-8.413-37.117-12.923-55.333-25.127-107.6-15.2-166.341a4.809,4.809,0,0,1,5.56-3.874,4.713,4.713,0,0,1,3.991,5.393c-9.623,56.938,2.375,108.332,15.084,162.746,2.822,12.093,5.743,24.6,8.452,37.285a4.7,4.7,0,0,1-3.756,5.552A4.967,4.967,0,0,1,1673.863,677.96Z" transform="translate(-717.712 -100.094)"/>
<path d="M886.078,871.434a4.913,4.913,0,0,1-2.695-.8,4.612,4.612,0,0,1-1.317-6.516c2.029-2.929,50.7-71.936,138.653-85.238,86.549-13.1,193.975-.151,195.05-.02a4.729,4.729,0,0,1,4.192,5.25,4.809,4.809,0,0,1-5.408,4.07c-1.063-.13-107.166-12.9-192.344-.02-83.663,12.655-131.638,80.517-132.112,81.2A4.878,4.878,0,0,1,886.078,871.434Z" transform="translate(-717.712 -100.094)"/><path d="M1225.391,1069.343c-.375,0-.748,0-1.125-.016-17.737-.526-29.9-13.487-30.409-14.037a4.6,4.6,0,0,1,.375-6.631,4.935,4.935,0,0,1,6.833.363c.088.1,10.02,10.557,23.578,10.918,8.486.2,16.759-3.519,24.7-11.126,11.325-10.851,13.076-57.7,4.568-122.249-7.252-55.03-20.757-111.705-30.1-126.338-9.44-14.779-19.855-23.477-30.116-25.156a22.585,22.585,0,0,0-16.845,3.785,4.963,4.963,0,0,1-6.8-.646,4.588,4.588,0,0,1,.613-6.577,32.679,32.679,0,0,1,24.389-5.865c13.363,2.084,25.807,12.014,36.982,29.512,19.6,30.688,56.7,228.994,24.107,260.217C1246.549,1064.689,1236.209,1069.343,1225.391,1069.343Z" transform="translate(-717.712 -100.094)"/><path d="M1188.431,773.981a4.815,4.815,0,0,1-4.708-3.632,4.694,4.694,0,0,1,3.615-5.64c.339-.076,34.331-7.772,74.985-17.506,15.008-3.593,31.378-9.708,48.709-16.182,30.186-11.276,61.4-22.936,92.645-24.462,50.829-2.47,132.21,9.313,163.648,15.415,33.96,6.592,51.034,13.685,51.746,13.983a4.643,4.643,0,0,1,2.514,6.174,4.9,4.9,0,0,1-6.36,2.447c-.164-.07-16.977-7.023-49.8-13.395-29.817-5.788-111.823-17.666-161.267-15.243-29.7,1.451-60.179,12.837-89.655,23.847-17.621,6.583-34.267,12.8-49.865,16.537-40.717,9.749-74.768,17.457-75.108,17.533A5.028,5.028,0,0,1,1188.431,773.981Z" transform="translate(-717.712 -100.094)"/><path d="M1640.6,1729.906a4.77,4.77,0,0,1-4.838-4.657c-.01-1.009-.875-101.33,0-146.857.889-46.181,16.466-123.3,89.59-349.526,70.171-217.091,55.913-281.419,39.4-355.906l-1.159-5.238c-15.2-68.834-72.412-172.532-82.335-190.2-9.945.612-43.19,2.579-88.928,4.473-52.017,2.154-163.387,33.129-164.506,33.441a4.862,4.862,0,0,1-5.988-3.214,4.677,4.677,0,0,1,3.311-5.812c4.615-1.289,113.607-31.6,166.77-33.8,54.66-2.264,91.414-4.631,91.78-4.654a4.867,4.867,0,0,1,4.548,2.4c2.766,4.822,67.929,118.937,84.811,195.394l1.159,5.231c16.8,75.788,31.3,141.241-39.63,360.7-72.783,225.161-88.276,301.516-89.149,346.89-.876,45.4-.009,145.594,0,146.6a4.767,4.767,0,0,1-4.8,4.736Z" transform="translate(-717.712 -100.094)"/><path d="M1095.92,1729.906a4.78,4.78,0,0,1-4.825-4.4c-.09-1.4-8.939-142.38,0-311.511,7.087-134.129,33.468-270.669,44.733-328.977,2.607-13.487,4.858-25.136,4.9-27a4.815,4.815,0,0,1,4.839-4.636,4.743,4.743,0,0,1,4.838,4.651c0,2.373-1.3,9.23-5.066,28.716-11.23,58.121-37.528,194.227-44.581,327.729-8.909,168.6-.093,309.043,0,310.44a4.746,4.746,0,0,1-4.526,4.981C1096.123,1729.9,1096.02,1729.906,1095.92,1729.906Z" transform="translate(-717.712 -100.094)"/><path d="M1468.254,1086.052a4.813,4.813,0,0,1-4.72-3.672c-.012,0-6.205-16.942-63.628-25.582-61.508-9.253-164.393,11.177-165.425,11.386a4.832,4.832,0,0,1-5.719-3.648,4.7,4.7,0,0,1,3.756-5.55c4.285-.859,105.682-20.968,168.869-11.471,64.466,9.7,71.053,30.477,71.592,32.817a4.7,4.7,0,0,1-3.667,5.607A5.05,5.05,0,0,1,1468.254,1086.052Z" transform="translate(-717.712 -100.094)"/><path d="M1640.6,1640.118a4.877,4.877,0,0,1-3.91-1.927,4.6,4.6,0,0,1,1.053-6.561c1.383-.981,138.768-98.6,169.555-139.155,8.574-11.294,18.907-22.246,28.9-32.841,27.152-28.777,55.227-58.536,53.642-99.979-2.173-56.967-46.4-215.265-54.086-226.5a4.6,4.6,0,0,1-.721-6.039,4.929,4.929,0,0,1,6.71-1.3c10.868,7.035,55.714,179.667,57.769,233.5,1.729,45.293-27.707,76.5-56.176,106.671-10.276,10.891-19.982,21.176-28.248,32.067-31.669,41.711-165.938,137.128-171.64,141.167A4.908,4.908,0,0,1,1640.6,1640.118Z" transform="translate(-717.712 -100.094)"/><path d="M1091.569,1058.665c-19.4,0-38.713-.547-56.915-1.825-85.631-6.008-151.994-20.807-262.994-58.653-49.032-16.718-49.122-107.4-49.237-222.217-.034-33.558-.069-68.258-1.378-103.154-5.406-144-3.371-240.177.014-278.782,2.965-33.807,12.6-57.767,25.933-90.931l1.457-3.625c14.464-36.015,143.164-168.864,148.636-174.5.469-.5,12.884-13.453,28.27-7.971,7.568,2.694,35.153,13.02,61.719,24.723,51.6,22.735,52.857,30.3,53.458,33.93,2.44,14.731-18.391,45.286-22.591,51.262a4.934,4.934,0,0,1-6.725,1.234,4.611,4.611,0,0,1-1.271-6.526c8.885-12.647,22.451-35.906,21.032-44.478-3.2-8.748-66.673-36.275-108.955-51.327-9.245-3.284-17.769,5.465-17.856,5.554-1.364,1.406-132.914,137.182-146.7,171.513l-1.457,3.628c-13.526,33.635-22.46,55.858-25.306,88.31-3.363,38.345-5.376,134.066.014,277.645,1.315,35.062,1.35,69.848,1.385,103.487.105,106.7.2,198.852,42.766,213.366,110.088,37.534,175.818,52.2,260.485,58.145,84.7,5.949,193.289-4,221.817-11.179a4.856,4.856,0,0,1,5.9,3.366,4.69,4.69,0,0,1-3.47,5.728C1236.713,1051.144,1163.494,1058.665,1091.569,1058.665Z" transform="translate(-717.712 -100.094)"/><path d="M926.007,826.9a4.79,4.79,0,0,1-4.8-4.189c-.049-.437-5.13-44.674-21.768-110.344-6.29-24.823-15.05-53.188-24.326-83.216-15.846-51.3-32.232-104.347-40.059-151.022-12.489-74.483-.209-103.835.32-105.047a4.674,4.674,0,0,1,1.063-1.519s10.917-10.423,22.212-21.059c4.289-4.039,9.839-7.223,16.262-10.91,12.077-6.933,27.106-15.56,44.355-35.091,9.393-10.636,14.8-17.236,18.384-21.6,7.141-8.709,8.066-9.677,17.312-15.326,11.123-6.8,40.677-6.682,70.938-5.537,3.161.12,5.548.211,6.828.211a13.608,13.608,0,0,0,11.637-6.869c2.311-3.849,2.744-8.351,1.079-11.2-2.077-3.555-7.608-4.973-18.919-7.595A271.024,271.024,0,0,1,998.04,228.7c-7.57-2.6-23.163-5.758-38.243-8.816-11.3-2.291-21.974-4.454-29.107-6.342-10.64-2.816-35.971,3.308-56.12,9.981l-.5.164a4.876,4.876,0,0,1-6.121-2.973,4.668,4.668,0,0,1,3.062-5.94l.43-.141c13.377-4.43,46.176-14.288,61.79-10.154,6.852,1.815,17.386,3.951,28.54,6.212,15.392,3.12,31.309,6.347,39.491,9.154a262.423,262.423,0,0,0,27.5,7.6c12.549,2.909,20.84,4.832,25.087,12.1,3.41,5.837,2.975,13.716-1.134,20.565a23.247,23.247,0,0,1-20,11.533c-1.351,0-3.868-.093-7.2-.219-13.676-.512-55.288-2.082-65.408,4.1-8.118,4.958-8.244,5.114-14.894,13.226-3.625,4.419-9.1,11.1-18.611,21.866-18.289,20.711-34.753,30.162-46.774,37.063-6.137,3.522-10.985,6.306-14.45,9.569-9.487,8.932-18.706,17.715-21.387,20.271-1.722,4.985-10.257,34.321.605,99.1,7.725,46.072,24.019,98.82,39.776,149.832,9.312,30.146,18.106,58.619,24.454,83.671,16.8,66.33,21.941,111.127,21.992,111.573a4.735,4.735,0,0,1-4.286,5.177A5.29,5.29,0,0,1,926.007,826.9Z" transform="translate(-717.712 -100.094)"/><path d="M968.436,219.887a4.917,4.917,0,0,1-1.236-.157,4.661,4.661,0,0,1-3.445-5.688c.275-1.034,2.093-6.166,5.409-15.273l-21.343-8.822L931.3,211.005a4.935,4.935,0,0,1-6.78.892,4.605,4.605,0,0,1-.919-6.582l18.8-23.966a4.936,4.936,0,0,1,5.746-1.475L976.033,191.4a5.883,5.883,0,0,1,3.367,7.448c-4.3,11.775-6.07,16.821-6.281,17.564A4.856,4.856,0,0,1,968.436,219.887Z" transform="translate(-717.712 -100.094)"/><path d="M1032.684,233.071a4.916,4.916,0,0,1-2.5-.678,4.619,4.619,0,0,1-1.636-6.449c5.32-8.533,13.936-24.261,14.418-30.137.447-5.461-2.19-8.348-4.308-10.667a20.334,20.334,0,0,1-1.664-1.99,4.613,4.613,0,0,1,1.342-6.513,4.927,4.927,0,0,1,6.707,1.3,12.611,12.611,0,0,0,.857.975c2.431,2.66,7.487,8.2,6.712,17.641-.818,10-14.255,31.8-15.785,34.256A4.863,4.863,0,0,1,1032.684,233.071Z" transform="translate(-717.712 -100.094)"/><path d="M968.349,288.683c-7.272,0-14.612-3-18.118-9.669a4.629,4.629,0,0,1,2.11-6.317,4.913,4.913,0,0,1,6.509,2.049c2.465,4.687,10.028,5.589,15.285,3.47,6.574-2.657,11.672-8.8,16.17-14.214a4.939,4.939,0,0,1,6.8-.711,4.6,4.6,0,0,1,.732,6.6c-4.963,5.978-11.139,13.418-19.985,16.994A25.635,25.635,0,0,1,968.349,288.683Z" transform="translate(-717.712 -100.094)"/><path d="M987.411,291.183a24.8,24.8,0,0,1-8.329-1.392,4.659,4.659,0,0,1-2.876-6.027,4.877,4.877,0,0,1,6.209-2.792c5.143,1.835,11.727.594,17.6-3.315,5.812-3.867,5.812-3.867,10.093-9.305a4.945,4.945,0,0,1,6.783-.88,4.605,4.605,0,0,1,.907,6.583c-5.026,6.386-5.486,6.811-12.311,11.349A33.016,33.016,0,0,1,987.411,291.183Z" transform="translate(-717.712 -100.094)"/><path d="M1024.159,733.467a4.85,4.85,0,0,1-4.388-2.712L993.937,677a4.641,4.641,0,0,1,2.339-6.243,4.9,4.9,0,0,1,6.431,2.271l25.834,53.757a4.64,4.64,0,0,1-2.339,6.242A4.941,4.941,0,0,1,1024.159,733.467Z" transform="translate(-717.712 -100.094)"/><path d="M1083.936,725.033a4.788,4.788,0,0,1-4.8-4.168l-7.381-63.245a4.727,4.727,0,0,1,4.262-5.194,4.8,4.8,0,0,1,5.353,4.136l7.381,63.246a4.728,4.728,0,0,1-4.263,5.194A4.885,4.885,0,0,1,1083.936,725.033Z" transform="translate(-717.712 -100.094)"/><path d="M1143,725.033a5.031,5.031,0,0,1-.709-.049,4.723,4.723,0,0,1-4.086-5.329l8.12-53.758a4.81,4.81,0,0,1,5.491-3.966,4.724,4.724,0,0,1,4.086,5.33l-8.12,53.757A4.8,4.8,0,0,1,1143,725.033Z" transform="translate(-717.712 -100.094)"/><path d="M1260.237,1038.488c-.343,5.893-3.585,11.387-8,15.448s-9.929,6.823-15.586,9c-7.636,2.929-16.513,4.8-23.86,1.244C1166.579,1041.779,1259.885,1044.557,1260.237,1038.488Z" transform="translate(-717.712 -100.094)"/><path d="M974.081,200.524a4.8,4.8,0,0,1-4.782-4.019,4.721,4.721,0,0,1,4.09-5.325A31.418,31.418,0,0,0,984.1,187.6a4.912,4.912,0,0,1,6.6,1.753,4.621,4.621,0,0,1-1.806,6.4,40.805,40.805,0,0,1-14.105,4.716A4.931,4.931,0,0,1,974.081,200.524Z" transform="translate(-717.712 -100.094)"/><path d="M1752.414,1176.069l-3.509-8.757,35.418-13.365c17.516-6.607,37.365-14.094,51.327-27.563,1.758-1.691,3.809-3.9,4.107-6.045.221-1.59-.427-3.633-1.057-5.607l-34.262-107.611c-7.9-24.827-22.049-62.642-29.651-82.96a4.661,4.661,0,0,1,2.9-6.017,4.877,4.877,0,0,1,6.2,2.813c7.626,20.391,21.824,58.347,29.8,83.394l34.261,107.611c.848,2.668,1.9,5.989,1.4,9.63-.686,4.945-4.035,8.721-6.876,11.458-15.4,14.846-36.245,22.714-54.639,29.655Z" transform="translate(-717.712 -100.094)"/>
</svg>