<?xml version="1.0" encoding="utf-8"?>
<!-- Generator: Adobe Illustrator 24.3.0, SVG Export Plug-In . SVG Version: 6.00 Build 0)  -->
<svg version="1.1" id="Layer_1" xmlns="http://www.w3.org/2000/svg" xmlns:xlink="http://www.w3.org/1999/xlink" x="0px" y="0px"
	 viewBox="0 0 259.6 177.9" style="enable-background:new 0 0 259.6 177.9;" xml:space="preserve">
<style type="text/css">
	.st0{fill:#FFFFFF;}
	.st1{fill:#FFEA8D;}
	.st2{fill:none;}
	.st3{fill:#A4C8FF;}
	.st4{fill:#BCBEC0;}
	.st5{fill:#F1F2F2;}
	.st6{fill:#F8FF77;}
	.st7{fill:#FF908D;}
</style>
<g id="bearings">
	<path class="st0" d="M75.2,49.5c0,0.1,0,0.2,0,0.3c0.2,7.7,6.6,13.9,14.3,13.7c7.5-0.2,13.5-6.2,13.7-13.7c0-0.4,0-0.8-0.1-1.2
		L75.2,49.5z"/>
	<path d="M89.2,64.4c-8.2,0.1-14.9-6.5-15-14.6c0,0,0-0.2,0-0.2c0-0.5,0.4-0.9,0.9-1l27.9-0.9c0.5,0,0.9,0.4,1,0.8
		c0,0.4,0.1,0.8,0.1,1.3C104.1,58,97.4,64.5,89.2,64.4z M76.2,50.4c0.5,7.2,6.7,12.6,13.9,12.1c6.7-0.5,12-6,12.2-12.8
		c0-0.1,0-0.1,0-0.2L76.2,50.4z"/>
	<path class="st1" d="M89.2,33.4c-9.1-0.1-16.6,7.2-16.8,16.3l2.8-0.1l27.9-0.9l2.8-0.1C105.2,39.9,97.9,33.3,89.2,33.4z"/>
	<path d="M72.4,50.6c-0.2,0-0.5-0.1-0.7-0.3c-0.2-0.2-0.3-0.4-0.3-0.7c0.3-9.8,8.5-17.5,18.3-17.2c8.9,0.3,16.2,7.1,17.1,16
		c0,0.3-0.1,0.5-0.2,0.7c-0.2,0.2-0.4,0.3-0.7,0.3L72.4,50.6L72.4,50.6z M89.2,34.3c-8.2-0.1-15.1,6.2-15.8,14.4l31.4-1
		C103.7,39.9,97,34.3,89.2,34.3z"/>
	<line class="st2" x1="72.4" y1="49.6" x2="114.9" y2="48.2"/>
	<path d="M72.4,50.6c-0.5,0-0.9-0.4-1-0.9c0-0.5,0.4-0.9,0.9-1c0,0,0,0,0.1,0l42.4-1.4c0.5,0,0.9,0.4,1,0.9c0,0,0,0,0,0
		c0,0.5-0.4,0.9-0.9,1L72.4,50.6L72.4,50.6z"/>
	<path d="M95.8,42.4c-0.3,0-0.5-0.1-0.7-0.3c-9.7-9.6-18.8-1.1-19.2-0.7c-0.4,0.4-1,0.4-1.3,0c-0.4-0.4-0.4-0.9,0-1.3c0,0,0,0,0,0
		c0.1-0.1,10.9-10.2,21.9,0.7c0.4,0.4,0.4,0.9,0,1.3c0,0,0,0,0,0C96.3,42.3,96,42.4,95.8,42.4z"/>
	<g id="desktop">
		<rect x="102.6" y="64.9" class="st3" width="86.6" height="60.1"/>
		<path d="M189.3,125.9h-86.6c-0.5,0-0.9-0.4-0.9-0.9c0,0,0,0,0,0V64.9c0-0.5,0.4-0.9,0.9-0.9c0,0,0,0,0,0h86.6
			c0.5,0,0.9,0.4,0.9,0.9c0,0,0,0,0,0V125C190.2,125.5,189.8,125.9,189.3,125.9C189.3,125.9,189.3,125.9,189.3,125.9z M103.6,124.1
			h84.7V65.9h-84.7V124.1z"/>
	</g>
	<rect x="127" y="125" class="st4" width="38" height="12.5"/>
	<path d="M164.9,138.5h-38c-0.5,0-0.9-0.4-1-0.9V125c0-0.5,0.4-0.9,0.9-0.9c0,0,0,0,0,0h38c0.5,0,0.9,0.4,0.9,0.9c0,0,0,0,0,0v12.5
		C165.9,138,165.5,138.5,164.9,138.5C164.9,138.5,164.9,138.5,164.9,138.5z M127.9,136.6H164v-10.7h-36.1V136.6z"/>
	<path d="M181.7,80.2H157c-0.5,0-0.9-0.4-0.9-0.9s0.4-0.9,0.9-0.9c0,0,0,0,0,0h24.7c0.5,0,0.9,0.4,0.9,0.9S182.2,80.2,181.7,80.2
		C181.7,80.2,181.7,80.2,181.7,80.2z"/>
	<path d="M181.7,90.7H157c-0.5,0-0.9-0.4-0.9-0.9s0.4-0.9,0.9-0.9c0,0,0,0,0,0h24.7c0.5,0,0.9,0.4,0.9,0.9S182.2,90.7,181.7,90.7
		C181.7,90.7,181.7,90.7,181.7,90.7z"/>
	<path d="M181.7,101.1H157c-0.5,0-0.9-0.4-0.9-0.9s0.4-0.9,0.9-0.9c0,0,0,0,0,0h24.7c0.5,0,0.9,0.4,0.9,0.9S182.2,101.1,181.7,101.1
		C181.7,101.1,181.7,101.1,181.7,101.1z"/>
	<path d="M181.7,111.6H157c-0.5,0-0.9-0.4-0.9-0.9s0.4-0.9,0.9-0.9c0,0,0,0,0,0h24.7c0.5,0,0.9,0.4,0.9,0.9S182.2,111.6,181.7,111.6
		C181.7,111.6,181.7,111.6,181.7,111.6z"/>
	<path class="st0" d="M141.3,95h9.2c0-5.2-2.1-10.1-5.9-13.6c-1.8,1.3-3.9,2.2-6,2.9C140.3,87.6,141.3,91.2,141.3,95z"/>
	<path d="M150.5,95.9h-9.2c-0.5,0-0.9-0.4-1-0.9c0-3.6-0.9-7.1-2.6-10.2c-0.1-0.2-0.1-0.5,0-0.8c0.1-0.3,0.3-0.4,0.6-0.5
		c2-0.7,4-1.6,5.7-2.8c0.4-0.3,0.9-0.2,1.2,0.1c3.9,3.7,6.2,8.9,6.2,14.3C151.4,95.5,151,95.9,150.5,95.9z M142.2,94h7.3
		c-0.2-4.3-2-8.4-5-11.5c-1.4,0.9-3,1.7-4.5,2.3C141.3,87.7,142.1,90.8,142.2,94L142.2,94z"/>
	<path class="st0" d="M138.6,105.6c2.1,0.7,4.1,1.7,6,2.9c3.8-3.5,5.9-8.4,5.9-13.6h-9.2C141.3,98.7,140.3,102.3,138.6,105.6z"/>
	<path d="M144.6,109.5c-0.2,0-0.4-0.1-0.5-0.2c-1.8-1.2-3.7-2.2-5.7-2.8c-0.3-0.1-0.5-0.3-0.6-0.5c-0.1-0.3-0.1-0.5,0-0.8
		c1.7-3.1,2.6-6.7,2.6-10.2c0-0.5,0.4-0.9,1-0.9h9.2c0.5,0,0.9,0.4,0.9,0.9c0,0,0,0,0,0c0,5.4-2.2,10.6-6.2,14.3
		C145.1,109.4,144.8,109.5,144.6,109.5z M139.9,105.1c1.6,0.6,3.1,1.4,4.5,2.3c3-3.1,4.8-7.2,5-11.5h-7.3
		C142.1,99.1,141.3,102.2,139.9,105.1z"/>
	<path class="st0" d="M138.6,84.3c2.1-0.7,4.1-1.7,6-2.9c-3.6-3.4-8.4-5.3-13.4-5.3C134.3,78.1,136.8,81,138.6,84.3z"/>
	<path d="M138.6,85.2c-0.4,0-0.7-0.2-0.8-0.5c-1.7-3.2-4.2-5.9-7.1-7.9c-0.3-0.2-0.5-0.7-0.4-1c0.1-0.4,0.5-0.6,0.9-0.6l0,0
		c5.2,0,10.3,2,14.1,5.6c0.4,0.3,0.4,0.9,0,1.3c0,0.1-0.1,0.1-0.2,0.1c-1.9,1.3-4,2.3-6.2,3.1C138.8,85.2,138.7,85.2,138.6,85.2z
		 M134.2,77.2c1.9,1.7,3.6,3.7,4.9,6c1.4-0.5,2.7-1.1,4-1.9C140.5,79.1,137.4,77.7,134.2,77.2z"/>
	<path class="st0" d="M121,95h-9.2c0,5.1,2.1,10.1,5.9,13.6c1.8-1.3,3.9-2.2,6-2.9C121.9,102.3,121,98.7,121,95z"/>
	<path d="M117.6,109.5c-0.2,0-0.5-0.1-0.7-0.3c-3.9-3.7-6.2-8.9-6.2-14.3c0-0.5,0.4-0.9,0.9-0.9c0,0,0,0,0,0h9.2
		c0.5,0,0.9,0.4,0.9,0.9c0,0,0,0,0,0c0,3.6,0.9,7.1,2.6,10.2c0.1,0.2,0.1,0.5,0,0.8c-0.1,0.3-0.3,0.4-0.6,0.5c-2,0.7-4,1.6-5.7,2.8
		C118,109.4,117.8,109.5,117.6,109.5z M112.7,95.9c0.2,4.3,2,8.4,5,11.5c1.4-0.9,3-1.7,4.5-2.3c-1.4-2.9-2.2-6-2.3-9.2L112.7,95.9z"
		/>
	<path class="st0" d="M123.6,84.3c-2.1-0.7-4.1-1.7-6-2.9c-3.8,3.5-5.9,8.4-5.9,13.6h9.2C121,91.2,121.9,87.6,123.6,84.3z"/>
	<path d="M121,95.9h-9.2c-0.5,0-0.9-0.4-0.9-0.9c0,0,0,0,0,0c0-5.4,2.2-10.6,6.2-14.3c0.3-0.3,0.8-0.3,1.2-0.1
		c1.8,1.2,3.7,2.2,5.7,2.8c0.3,0.1,0.5,0.3,0.6,0.5c0.1,0.3,0.1,0.5,0,0.8c-1.7,3.1-2.6,6.7-2.6,10.2
		C121.9,95.5,121.5,95.9,121,95.9z M112.7,94h7.3c0.1-3.2,0.9-6.3,2.3-9.2c-1.6-0.6-3.1-1.4-4.5-2.3C114.7,85.6,112.9,89.7,112.7,94
		L112.7,94z"/>
	<path class="st0" d="M121,95c0,3.7,0.9,7.4,2.7,10.7c2.4-0.8,4.9-1.2,7.5-1.2V95L121,95z"/>
	<path d="M123.6,106.6c-0.4,0-0.7-0.2-0.8-0.5c-1.8-3.4-2.8-7.2-2.8-11.1c0-0.5,0.4-0.9,1-0.9h10.1c0.5,0,0.9,0.4,1,0.9v9.5
		c0,0.5-0.4,0.9-0.9,0.9c0,0,0,0,0,0c-2.4,0-4.9,0.4-7.2,1.1C123.8,106.5,123.7,106.6,123.6,106.6z M121.9,95.9
		c0.1,3,0.9,5.9,2.2,8.6c2-0.6,4-0.9,6-1v-7.6L121.9,95.9z"/>
	<path class="st0" d="M131.1,85.5c-2.5,0-5.1-0.4-7.5-1.2c-1.8,3.3-2.7,6.9-2.7,10.7h10.1V85.5z"/>
	<path d="M131.1,95.9H121c-0.5,0-0.9-0.4-1-0.9c0-3.9,0.9-7.7,2.8-11.1c0.2-0.4,0.7-0.6,1.1-0.5c2.3,0.8,4.7,1.1,7.2,1.1
		c0.5,0,0.9,0.4,1,0.9c0,0,0,0,0,0V95C132.1,95.5,131.6,95.9,131.1,95.9z M121.9,94h8.2v-7.6c-2-0.1-4.1-0.4-6-1
		C122.8,88.1,122.1,91,121.9,94L121.9,94z"/>
	<path class="st0" d="M131.1,95h10.1c0-3.7-0.9-7.4-2.7-10.7c-2.4,0.8-4.9,1.2-7.5,1.2V95z"/>
	<path d="M141.3,95.9h-10.1c-0.5,0-0.9-0.4-0.9-0.9c0,0,0,0,0,0v-9.5c0-0.5,0.4-0.9,0.9-0.9c0,0,0,0,0,0c2.4,0,4.9-0.4,7.2-1.1
		c0.4-0.1,0.9,0,1.1,0.5c1.8,3.4,2.8,7.2,2.8,11.1C142.2,95.5,141.8,95.9,141.3,95.9C141.3,95.9,141.3,95.9,141.3,95.9z M132.1,94
		h8.2c-0.1-3-0.9-5.9-2.2-8.6c-2,0.6-4,0.9-6,1V94z"/>
	<path class="st0" d="M131.1,104.4c2.5,0,5.1,0.4,7.5,1.2c1.8-3.3,2.7-6.9,2.7-10.7h-10.1V104.4z"/>
	<path d="M138.6,106.6c-0.1,0-0.2,0-0.3,0c-2.3-0.8-4.7-1.1-7.2-1.1c-0.5,0-0.9-0.4-0.9-0.9c0,0,0,0,0,0V95c0-0.5,0.4-0.9,0.9-0.9
		c0,0,0,0,0,0h10.1c0.5,0,0.9,0.4,0.9,0.9c0,0,0,0,0,0c0,3.9-1,7.7-2.8,11.1C139.3,106.4,138.9,106.6,138.6,106.6z M132.1,103.5
		c2,0.1,4.1,0.4,6,1c1.3-2.7,2.1-5.6,2.2-8.6h-8.2V103.5z"/>
	<path class="st0" d="M131.1,76c-5,0-9.8,1.9-13.4,5.3c1.8,1.3,3.9,2.2,6,2.9C125.4,81,127.9,78.1,131.1,76z"/>
	<path d="M123.6,85.2c-0.1,0-0.2,0-0.3,0c-2.2-0.7-4.3-1.8-6.2-3.1c-0.4-0.3-0.5-0.9-0.2-1.3c0-0.1,0.1-0.1,0.1-0.2
		c3.8-3.6,8.8-5.6,14.1-5.6l0,0c0.4,0,0.8,0.3,0.9,0.6c0.1,0.4,0,0.8-0.4,1c-3,2-5.4,4.8-7.1,7.9C124.3,85,124,85.2,123.6,85.2z
		 M119.2,81.2c1.3,0.8,2.6,1.4,4,1.9c1.3-2.2,2.9-4.2,4.9-6C124.8,77.7,121.7,79.1,119.2,81.2z"/>
	<path class="st0" d="M131.2,76C131.1,76,131.1,76,131.2,76h-0.1H131.2L131.2,76z"/>
	<path d="M131.2,77c-0.4,0-0.8-0.2-1-0.6c-0.1-0.4,0-0.8,0.3-1c0.2-0.1,0.4-0.2,0.6-0.2v0v0c0.2,0,0.4,0,0.6,0.1
		c0.3,0.2,0.5,0.7,0.4,1.1C131.9,76.7,131.6,76.9,131.2,77z"/>
	<path class="st0" d="M123.6,84.3c2.4,0.8,4.9,1.2,7.5,1.2V76h-0.1C127.9,78.1,125.4,81,123.6,84.3z"/>
	<path d="M131.1,86.4c-2.6,0-5.3-0.4-7.8-1.2c-0.3-0.1-0.5-0.3-0.6-0.5c-0.1-0.3-0.1-0.5,0-0.8c1.8-3.4,4.5-6.4,7.7-8.6
		c0.5-0.3,1.1-0.1,1.4,0.3c0.1,0.1,0.1,0.3,0.1,0.4v9.5C132,86,131.6,86.4,131.1,86.4z M125,83.8c1.7,0.5,3.4,0.7,5.1,0.8v-6.7
		C128.1,79.5,126.4,81.5,125,83.8L125,83.8z"/>
	<path class="st0" d="M131.1,85.5c2.5,0,5.1-0.4,7.5-1.2c-1.8-3.3-4.3-6.2-7.4-8.3h-0.1L131.1,85.5z"/>
	<path d="M131.1,86.4c-0.5,0-0.9-0.4-0.9-0.9c0,0,0,0,0,0V76c0.1-0.6,0.6-1,1.1-0.9c0.1,0,0.3,0.1,0.4,0.1c3.2,2.2,5.9,5.2,7.7,8.6
		c0.1,0.2,0.1,0.5,0,0.8c-0.1,0.3-0.3,0.4-0.6,0.5C136.4,86,133.7,86.4,131.1,86.4z M132.1,77.9v6.7c1.7-0.1,3.5-0.3,5.1-0.8
		C135.8,81.5,134.1,79.5,132.1,77.9z"/>
	<path class="st0" d="M131.2,113.9c5,0,9.8-1.9,13.4-5.3c-1.8-1.3-3.9-2.2-6-2.9C136.8,108.9,134.3,111.8,131.2,113.9z"/>
	<path d="M131.2,114.8c-0.4,0-0.8-0.3-0.9-0.6c-0.1-0.4,0-0.8,0.4-1c3-2,5.4-4.8,7.1-7.9c0.2-0.4,0.7-0.6,1.1-0.5
		c2.2,0.7,4.3,1.7,6.2,3.1c0.2,0.2,0.4,0.4,0.4,0.7c0,0.3-0.1,0.6-0.3,0.7C141.4,112.8,136.4,114.8,131.2,114.8L131.2,114.8z
		 M139,106.8c-1.3,2.2-2.9,4.2-4.9,6c3.3-0.5,6.3-1.9,8.9-4C141.8,107.9,140.4,107.3,139,106.8L139,106.8z"/>
	<path class="st0" d="M123.6,105.6c-2.1,0.7-4.1,1.7-6,2.9c3.6,3.4,8.4,5.3,13.4,5.3C127.9,111.8,125.4,108.9,123.6,105.6z"/>
	<path d="M131.1,114.8L131.1,114.8c-5.2,0-10.3-2-14.1-5.6c-0.4-0.3-0.4-0.9,0-1.3c0,0,0.1-0.1,0.2-0.1c1.9-1.3,4-2.3,6.2-3.1
		c0.4-0.1,0.9,0,1.1,0.5c1.7,3.2,4.2,5.9,7.1,7.9c0.3,0.2,0.5,0.7,0.4,1C131.8,114.6,131.5,114.8,131.1,114.8z M119.2,108.7
		c2.5,2.1,5.6,3.5,8.9,4c-1.9-1.7-3.6-3.7-4.9-6C121.8,107.3,120.4,107.9,119.2,108.7L119.2,108.7z"/>
	<path class="st0" d="M131.1,113.9C131.1,113.9,131.1,113.9,131.1,113.9c0.1,0,0.1,0,0.1,0C131.1,113.9,131.1,113.9,131.1,113.9
		C131.1,113.9,131.1,113.9,131.1,113.9z"/>
	<path d="M131.2,114.8L131.2,114.8c-0.2,0-0.4,0-0.6-0.1c0,0-0.1-0.1-0.1-0.1c-0.3-0.3-0.4-0.7-0.3-1c0.3-0.5,0.9-0.7,1.4-0.4
		c0.2,0.1,0.3,0.2,0.4,0.4c0.2,0.4,0.1,0.8-0.2,1C131.6,114.7,131.4,114.8,131.2,114.8L131.2,114.8z"/>
	<path class="st0" d="M131.1,104.4c-2.5,0-5.1,0.4-7.5,1.2c1.8,3.3,4.3,6.2,7.4,8.3c0,0,0,0,0.1,0V104.4z"/>
	<path d="M131.1,114.8C131.1,114.8,131,114.8,131.1,114.8c-0.3,0-0.4-0.1-0.6-0.2c-3.2-2.2-5.9-5.2-7.7-8.6c-0.1-0.2-0.1-0.5,0-0.8
		c0.1-0.3,0.3-0.4,0.6-0.5c2.5-0.8,5.1-1.2,7.8-1.2c0.5,0,0.9,0.4,1,0.9c0,0,0,0,0,0v9.5C132.1,114.4,131.6,114.8,131.1,114.8
		C131.1,114.8,131.1,114.8,131.1,114.8z M125,106.2c1.4,2.2,3.1,4.2,5.1,5.9v-6.7C128.4,105.5,126.7,105.7,125,106.2L125,106.2z"/>
	<path class="st0" d="M138.6,105.6c-2.4-0.8-4.9-1.2-7.5-1.2v9.5c0,0,0,0,0.1,0C134.3,111.8,136.8,108.9,138.6,105.6z"/>
	<path d="M131.2,114.8c-0.5,0-1-0.4-1-0.9v-9.5c0-0.5,0.4-0.9,0.9-0.9c0,0,0,0,0,0c2.6,0,5.3,0.4,7.8,1.2c0.3,0.1,0.5,0.3,0.6,0.5
		c0.1,0.3,0.1,0.5,0,0.8c-1.8,3.4-4.5,6.4-7.7,8.6C131.5,114.8,131.4,114.8,131.2,114.8z M132.1,105.4v6.7c2-1.6,3.8-3.6,5.1-5.9
		C135.5,105.7,133.8,105.5,132.1,105.4L132.1,105.4z"/>
	<path class="st5" d="M127.1,103l-7,1.9l-7.9-1.7L99.4,76.8c-0.4-1.1-0.9-2.2-1.6-3.3v0l0,0c-4.7-7.4-14.4-9.6-21.8-4.9
		c-3.6,2.3-6.2,6-7,10.2l-10.1,47h32.4l4.8-22.3l10.1,10.5l11.2,2.4l5.9,1.8c7.8,4.8,9.5-1.4,9.5-1.4l1.3-4.3
		C136,102.7,127.1,103,127.1,103z"/>
	<path d="M91.4,126.7H59c-0.3,0-0.6-0.1-0.7-0.4c-0.2-0.2-0.2-0.5-0.2-0.8l10.1-47c1.8-9,10.7-14.9,19.7-13.1c0.1,0,0.2,0,0.2,0.1
		c4.4,0.9,8.2,3.6,10.6,7.4c0.7,1.1,1.2,2.3,1.7,3.5l12.5,25.9l7.3,1.5l6.8-1.9c0.1,0,0.1,0,0.2,0h0c0.8,0,4.4,0.1,6.7,2.8
		c1.5,1.9,2,4.5,1.4,7.8l-1.3,4.4c-0.7,2.3-2.8,3.9-5.2,3.9l0,0c-2-0.1-3.9-0.8-5.6-1.9l-5.8-1.8l-11.1-2.4c-0.2,0-0.4-0.1-0.5-0.3
		l-8.9-9.2L92.3,126C92.2,126.4,91.8,126.7,91.4,126.7z M60.2,124.8h30.5l4.7-21.5c0.1-0.3,0.3-0.6,0.7-0.7c0.3-0.1,0.7,0,0.9,0.3
		l9.9,10.3l10.9,2.3l6,1.8c0.1,0,0.2,0.1,0.2,0.1c1.4,1,3,1.5,4.7,1.7c1.6,0,3-1,3.4-2.5l1.3-4.3c0.5-2.6,0.1-4.7-1-6.1
		c-1.3-1.4-3.1-2.2-5.1-2.2l-6.9,1.9c-0.1,0-0.3,0-0.4,0l-7.9-1.7c-0.3-0.1-0.5-0.3-0.7-0.5L98.6,77.2c-0.4-1.1-0.9-2.2-1.5-3.2
		c0,0,0,0,0-0.1c-2.7-4.3-7.4-6.9-12.5-6.9c-7,0.1-13.1,5-14.5,11.9L60.2,124.8z"/>
	<path d="M127,138.5h-18.7c-0.5,0-0.9-0.4-0.9-0.9s0.4-0.9,0.9-0.9c0,0,0,0,0,0H127c0.5,0,0.9,0.4,0.9,0.9S127.5,138.5,127,138.5
		C127,138.5,127,138.5,127,138.5L127,138.5z"/>
	<path d="M183.7,138.5h-18.7c-0.5,0-0.9-0.4-0.9-0.9s0.4-0.9,0.9-0.9c0,0,0,0,0,0h18.7c0.5,0,0.9,0.4,0.9,0.9
		S184.2,138.5,183.7,138.5C183.7,138.5,183.7,138.5,183.7,138.5z"/>
	<path d="M93.3,104.2c-0.2,0-0.5-0.1-0.7-0.3l-8.9-8.3c-0.4-0.3-0.4-0.9-0.1-1.3c0,0,0,0,0,0c0.4-0.4,1-0.4,1.3,0l8.9,8.3
		c0.4,0.3,0.4,0.9,0.1,1.3c0,0,0,0,0,0C93.8,104.1,93.6,104.2,93.3,104.2z"/>
	<path class="st6" d="M235.9,105.6c0.1,6.4-4.9,11.7-11.4,11.9c-6.4,0.1-11.7-4.9-11.9-11.4c-0.1-6.4,4.9-11.7,11.4-11.9
		c0.1,0,0.2,0,0.3,0C230.6,94.2,235.8,99.3,235.9,105.6z"/>
	<path d="M224.3,117.9c-6.8-0.1-12.2-5.8-12-12.6c0.1-6.8,5.8-12.2,12.6-12c6.7,0.1,12,5.6,12,12.3
		C236.8,112.5,231.1,118,224.3,117.9z M224.3,95.2c-5.8,0.1-10.3,4.9-10.2,10.7c0.1,5.8,4.9,10.3,10.7,10.2
		c5.7-0.1,10.2-4.8,10.2-10.4C234.9,99.8,230.1,95.1,224.3,95.2L224.3,95.2z"/>
	<path d="M201.6,162c-0.5,0-0.9-0.4-1-0.9v-17c0-0.1,0-0.3,0.1-0.4l14.7-30.2c0.2-0.5,0.8-0.7,1.3-0.4c0.5,0.2,0.7,0.8,0.5,1.2
		c0,0,0,0,0,0l-14.6,30v16.8C202.6,161.6,202.2,162,201.6,162C201.7,162,201.7,162,201.6,162z"/>
	<path d="M247,162c-0.5,0-0.9-0.4-0.9-0.9v-16.8l-14.6-30c-0.2-0.5,0-1,0.4-1.2c0,0,0,0,0,0c0.5-0.2,1,0,1.3,0.4l14.7,30.2
		c0.1,0.1,0.1,0.3,0.1,0.4v17C247.9,161.6,247.5,162,247,162C247,162,247,162,247,162z"/>
	<path d="M224.3,95.5c-0.5,0-0.9-0.4-0.9-0.9c0,0,0,0,0,0v-17c0-0.5,0.4-1,1-1c0.5,0,0.9,0.4,0.9,1v17
		C225.2,95.1,224.8,95.5,224.3,95.5C224.3,95.5,224.3,95.5,224.3,95.5z"/>
	<path d="M247.1,132.2h-45.6c-0.5,0-0.9-0.4-0.9-0.9s0.4-0.9,0.9-0.9c0,0,0,0,0,0h45.6c0.5,0,0.9,0.4,0.9,0.9
		C248,131.8,247.6,132.2,247.1,132.2C247.1,132.2,247.1,132.2,247.1,132.2z"/>
	<rect x="222.1" y="125.6" class="st4" width="4.4" height="11.4"/>
	<path d="M226.5,137.9h-4.4c-0.5,0-0.9-0.4-1-0.9c0,0,0,0,0,0v-11.4c0-0.5,0.4-0.9,1-0.9h4.4c0.5,0,0.9,0.4,0.9,0.9c0,0,0,0,0,0
		v11.4C227.4,137.5,227,137.9,226.5,137.9C226.5,137.9,226.5,137.9,226.5,137.9z M223,136h2.5v-9.5H223V136z"/>
	<path class="st0" d="M228.5,105.6c0.1,2.3-1.8,4.3-4.1,4.3c-2.3,0.1-4.3-1.8-4.3-4.1c-0.1-2.3,1.8-4.3,4.1-4.3c0,0,0.1,0,0.1,0
		C226.6,101.5,228.5,103.3,228.5,105.6C228.5,105.6,228.5,105.6,228.5,105.6z"/>
	<path d="M224.3,110.7c-2.8-0.1-5-2.4-5-5.2c0.1-2.8,2.4-5,5.2-5c2.8,0.1,5,2.3,5,5.1C229.4,108.5,227.1,110.7,224.3,110.7z
		 M224.3,102.4c-1.8,0-3.2,1.5-3.1,3.3c0,1.8,1.5,3.2,3.3,3.1c1.7,0,3.1-1.5,3.1-3.2C227.5,103.8,226.1,102.4,224.3,102.4z"/>
	<g id="spanner">
		<polygon id="spanner-2" class="st5" points="213.6,24.8 236.4,24.8 230.6,15 203.8,15 196.5,27.4 127.4,27.4 127.4,48.2 
			196.5,48.2 203.8,60.5 230.6,60.5 236.4,50.8 213.6,50.8 		"/>
		<path d="M230.6,61.5h-26.8c-0.3,0-0.6-0.2-0.8-0.5l-7-11.8h-68.6c-0.5,0-0.9-0.4-0.9-0.9c0,0,0,0,0,0V27.4c0-0.5,0.4-0.9,0.9-0.9
			c0,0,0,0,0,0H196l7-11.8c0.2-0.3,0.5-0.5,0.8-0.5h26.9c0.3,0,0.6,0.2,0.8,0.5l5.6,9.6c0.2,0.2,0.3,0.4,0.3,0.7
			c0,0.5-0.4,0.9-0.9,0.9h-21.9v24.1h21.9c0.3,0,0.6,0.2,0.8,0.5c0.2,0.3,0.2,0.6,0,0.9l-5.8,9.8C231.3,61.3,231,61.5,230.6,61.5z
			 M204.3,59.6h25.8l4.7-7.9h-21.2c-0.5,0-0.9-0.4-0.9-0.9c0,0,0,0,0,0v-26c0-0.5,0.4-0.9,0.9-0.9c0,0,0,0,0,0h21.2l-4.7-7.9h-25.8
			l-7,11.8c-0.2,0.3-0.5,0.5-0.8,0.5h-68.2v19h68.2c0.3,0,0.6,0.2,0.8,0.5L204.3,59.6z"/>
	</g>
	<polygon class="st3" points="229.9,45.1 225.5,37.8 229.9,30.4 238.6,30.4 242.9,37.8 238.6,45.1 	"/>
	<path d="M238.6,46.1h-8.7c-0.3,0-0.6-0.2-0.8-0.5l-4.3-7.4c-0.2-0.3-0.2-0.6,0-0.9l4.3-7.4c0.2-0.3,0.5-0.5,0.8-0.5h8.7
		c0.3,0,0.6,0.2,0.8,0.5l4.3,7.4c0.2,0.3,0.2,0.6,0,0.9l-4.3,7.4C239.2,45.9,238.9,46.1,238.6,46.1z M230.4,44.2h7.6l3.8-6.4
		l-3.8-6.4h-7.6l-3.8,6.4L230.4,44.2z"/>
	<path d="M246.7,38.7h-25c-0.5,0-0.9-0.4-0.9-0.9s0.4-0.9,0.9-0.9c0,0,0,0,0,0h25c0.5,0,0.9,0.4,0.9,0.9
		C247.7,38.3,247.2,38.7,246.7,38.7C246.7,38.7,246.7,38.7,246.7,38.7z"/>
	<path d="M193,42.4h-38c-0.5,0-0.9-0.4-0.9-0.9s0.4-0.9,0.9-0.9c0,0,0,0,0,0h38c0.5,0,0.9,0.4,0.9,0.9S193.5,42.4,193,42.4
		C193,42.4,193,42.4,193,42.4z"/>
	<g id="pen">
		<rect x="94" y="149.4" class="st1" width="16.1" height="15.5"/>
		<path d="M110.1,165.8H94c-0.5,0-0.9-0.4-1-0.9c0,0,0,0,0,0v-15.5c0-0.5,0.4-0.9,0.9-0.9c0,0,0,0,0,0h16.1c0.5,0,0.9,0.4,0.9,0.9
			c0,0,0,0,0,0v15.5C111,165.4,110.6,165.8,110.1,165.8C110.1,165.8,110.1,165.8,110.1,165.8z M94.9,163.9h14.2v-13.6H94.9V163.9z"
			/>
		<path d="M185,160.6c-0.1,0-0.3,0-0.4-0.1c-0.2-0.1-0.4-0.3-0.5-0.6l-1.8-5.9c-0.1-0.3,0-0.7,0.3-1c0.3-0.2,0.7-0.3,1-0.2l7.6,3.3
			c0.5,0.2,0.7,0.7,0.5,1.2c-0.1,0.2-0.3,0.4-0.5,0.5l-5.9,2.6C185.3,160.6,185.2,160.6,185,160.6z M184.7,155.5l0.9,2.9l2.9-1.3
			L184.7,155.5z"/>
		<rect x="116.1" y="149.4" class="st7" width="57" height="15.5"/>
		<path d="M173.1,165.8h-57c-0.5,0-0.9-0.4-0.9-0.9c0,0,0,0,0,0v-15.5c0-0.5,0.4-0.9,0.9-0.9c0,0,0,0,0,0h57c0.5,0,0.9,0.4,1,0.9
			c0,0,0,0,0,0v15.5C174.1,165.4,173.6,165.8,173.1,165.8C173.1,165.8,173.1,165.8,173.1,165.8z M117.1,163.9h55.1v-13.6h-55.1
			V163.9z"/>
		<polygon class="st5" points="173.1,164.9 185,159.7 183.3,153.8 173.1,149.4 		"/>
		<path d="M173.1,165.8c-0.2,0-0.4-0.1-0.5-0.2c-0.3-0.2-0.4-0.5-0.4-0.8v-15.5c0-0.3,0.2-0.6,0.4-0.8c0.3-0.2,0.6-0.2,0.9-0.1
			l10.1,4.4c0.3,0.1,0.4,0.3,0.5,0.6l1.8,5.9c0.1,0.5-0.1,0.9-0.5,1.1l-11.9,5.2C173.4,165.8,173.3,165.8,173.1,165.8z M174.1,150.8
			v12.6l9.8-4.3l-1.4-4.7L174.1,150.8z"/>
		<path d="M160.3,158.1h-44.2c-0.5,0-0.9-0.4-0.9-0.9s0.4-0.9,0.9-0.9c0,0,0,0,0,0h44.2c0.5,0,0.9,0.4,0.9,0.9
			S160.8,158.1,160.3,158.1C160.3,158.1,160.3,158.1,160.3,158.1z"/>
	</g>
	<path d="M59.5,65.9H17.8c-0.5,0-0.9-0.4-0.9-0.9c0,0,0,0,0,0V15c0-0.5,0.4-0.9,0.9-0.9c0,0,0,0,0,0h41.8c0.5,0,0.9,0.4,0.9,0.9
		c0,0,0,0,0,0v49.9C60.5,65.5,60.1,65.9,59.5,65.9C59.5,65.9,59.5,65.9,59.5,65.9z M18.7,64h39.9V16H18.7L18.7,64z"/>
	<path class="st5" d="M60.8,134.7H29.1v4.5c0,3-2.5,5.4-5.4,5.3h42.6c3,0,5.4-2.4,5.4-5.3v-4.5H60.8z"/>
	<path d="M66.3,145.4H23.7c-0.5,0-0.9-0.4-0.9-0.9s0.4-0.9,0.9-0.9c0,0,0,0,0,0c2.5,0,4.5-1.9,4.5-4.4v-4.5c0-0.5,0.4-0.9,0.9-0.9
		c0,0,0,0,0,0h42.6c0.5,0,0.9,0.4,0.9,0.9c0,0,0,0,0,0v4.5C72.6,142.7,69.8,145.5,66.3,145.4z M28.2,143.6h38.1
		c2.5,0,4.5-1.9,4.5-4.4v-3.6H30v3.6C30,140.8,29.4,142.4,28.2,143.6L28.2,143.6z"/>
	<path class="st0" d="M18.2,83.3v55.9c0.1,3,2.6,5.4,5.6,5.3c2.9-0.1,5.3-2.4,5.3-5.3v-4.5h31.7V83.3H18.2z"/>
	<path d="M23.7,145.4c-3.5,0-6.4-2.8-6.4-6.3V83.3c0-0.5,0.4-0.9,0.9-0.9c0,0,0,0,0,0h42.6c0.5,0,0.9,0.4,0.9,0.9c0,0,0,0,0,0v51.4
		c0,0.5-0.4,0.9-0.9,0.9c0,0,0,0,0,0H30v3.6C30,142.7,27.1,145.5,23.7,145.4z M19.2,84.2v55c0,2.5,2,4.5,4.5,4.5s4.5-2,4.5-4.5v-4.5
		c0-0.5,0.4-0.9,0.9-0.9c0,0,0,0,0,0h30.8V84.2H19.2z"/>
	<path d="M56.1,156.2H20c-0.5,0-0.9-0.4-0.9-0.9s0.4-0.9,0.9-0.9c0,0,0,0,0,0h36.2c0.5,0,0.9,0.4,0.9,0.9S56.7,156.2,56.1,156.2
		C56.1,156.2,56.1,156.2,56.1,156.2z"/>
	<path d="M75.2,165.8H20c-0.5,0-0.9-0.4-0.9-0.9s0.4-0.9,0.9-0.9c0,0,0,0,0,0h55.2c0.5,0,0.9,0.4,0.9,0.9S75.7,165.8,75.2,165.8
		C75.2,165.8,75.2,165.8,75.2,165.8z"/>
	<path d="M75.2,16H59.5c-0.5,0-0.9-0.4-0.9-0.9s0.4-0.9,0.9-0.9c0,0,0,0,0,0h15.7c0.5,0,0.9,0.4,0.9,0.9S75.7,16,75.2,16
		C75.2,16,75.2,16,75.2,16z"/>
	<path d="M65.6,26.1h-6c-0.5,0-0.9-0.4-0.9-0.9s0.4-0.9,0.9-0.9c0,0,0,0,0,0h6c0.5,0,0.9,0.4,0.9,0.9S66.1,26.1,65.6,26.1
		C65.6,26.1,65.6,26.1,65.6,26.1z"/>
	<path d="M127.4,28.3h-17.3c-0.5,0-0.9-0.4-0.9-0.9s0.4-0.9,0.9-0.9c0,0,0,0,0,0h17.3c0.5,0,0.9,0.4,0.9,0.9S127.9,28.3,127.4,28.3
		C127.4,28.3,127.4,28.3,127.4,28.3L127.4,28.3z"/>
	<path d="M127,42.4h-8.2c-0.5,0-0.9-0.4-0.9-0.9s0.4-0.9,0.9-0.9c0,0,0,0,0,0h8.2c0.5,0,0.9,0.4,0.9,0.9S127.5,42.4,127,42.4
		C127,42.4,127,42.4,127,42.4z"/>
	<path class="st7" d="M49.6,51.4l-1.1-3.4c0.9-1.1,1.6-2.3,2.1-3.5l3.5-0.7c0-0.2,0.1-0.3,0.1-0.5c0.8-3.4,0.3-7-1.2-10.1l-3.6,0
		c-0.8-1.2-1.7-2.2-2.8-3.1l0.4-3.5c-1.6-1-3.3-1.7-5.1-2.1c-1.8-0.4-3.7-0.5-5.5-0.2l-1.1,3.4c-1.4,0.3-2.7,0.9-3.8,1.6l-3.3-1.5
		c-2.7,2.2-4.7,5.3-5.4,8.7c0,0.2-0.1,0.3-0.1,0.5l2.9,2c-0.1,1.4,0,2.8,0.4,4.1l-2.5,2.6c1.4,3.4,4,6.3,7.3,8l2.9-2.1
		c0.7,0.3,1.3,0.5,2,0.6c0.7,0.1,1.4,0.2,2.1,0.3l1.7,3.1C43.3,55.5,46.8,54,49.6,51.4z M36.6,48.7c-4.8-1-7.9-5.6-6.9-10.4
		c0,0,0-0.1,0-0.1c1.1-4.8,5.9-7.8,10.8-6.8c4.8,1,7.9,5.6,6.9,10.4c0,0,0,0.1,0,0.1C46.2,46.7,41.4,49.7,36.6,48.7L36.6,48.7z"/>
	<path d="M39.6,56.6c-0.3,0-0.7-0.2-0.8-0.5l-1.5-2.7c-0.6-0.1-1.1-0.1-1.7-0.3c-0.6-0.1-1.1-0.3-1.7-0.5l-2.5,1.8
		c-0.3,0.2-0.7,0.2-1,0.1c-3.5-1.8-6.2-4.8-7.7-8.5c-0.1-0.3-0.1-0.7,0.2-1L25,43c-0.3-1.1-0.4-2.2-0.3-3.4l-2.5-1.8
		c-0.3-0.2-0.5-0.6-0.4-0.9l0.1-0.5c0.8-3.6,2.8-6.9,5.8-9.3c0.3-0.2,0.7-0.3,1-0.1l2.8,1.3c1-0.6,2.1-1,3.2-1.4l0.9-2.9
		c0.1-0.3,0.4-0.6,0.8-0.6c2-0.2,3.9-0.2,5.9,0.2c1.9,0.4,3.8,1.1,5.4,2.2c0.3,0.2,0.5,0.5,0.4,0.9l-0.4,3c0.9,0.7,1.6,1.6,2.3,2.5
		l3.1,0h0c0.4,0,0.7,0.2,0.9,0.5c1.6,3.3,2.1,7.1,1.3,10.7L55,44.1c-0.1,0.3-0.4,0.6-0.7,0.7l-3,0.6c-0.5,1-1,2-1.8,2.9l1,2.9
		c0.1,0.3,0,0.7-0.2,1C47.3,54.8,43.6,56.4,39.6,56.6L39.6,56.6z M33.7,50.8c0.1,0,0.2,0,0.3,0.1c1.2,0.5,2.5,0.7,3.8,0.8
		c0.3,0,0.6,0.2,0.8,0.5l1.4,2.6c3.1-0.3,6-1.6,8.4-3.6l-0.9-2.8c-0.1-0.3,0-0.6,0.2-0.9c0.8-1,1.5-2.1,2-3.3
		c0.1-0.3,0.4-0.5,0.7-0.6l2.9-0.5c0.7-3,0.3-6.1-0.9-8.9l-3,0h0c-0.3,0-0.6-0.2-0.8-0.4c-0.7-1.1-1.6-2-2.6-2.8
		c-0.3-0.2-0.4-0.5-0.3-0.8l0.4-2.9c-2.7-1.5-5.8-2.2-8.9-1.9L36.2,28c-0.1,0.3-0.4,0.5-0.7,0.6c-1.3,0.3-2.5,0.8-3.6,1.5
		c-0.3,0.2-0.6,0.2-0.9,0.1L28.4,29c-2.3,2-3.9,4.7-4.6,7.7l2.4,1.7c0.3,0.2,0.4,0.5,0.4,0.8c-0.1,1.3,0,2.6,0.4,3.8
		c0.1,0.3,0,0.6-0.2,0.9l-2,2.1c1.3,2.8,3.4,5.1,6.1,6.7l2.4-1.7C33.3,50.9,33.5,50.8,33.7,50.8L33.7,50.8z M38.5,49.8
		c-0.7,0-1.4-0.1-2.2-0.2c-5.3-1.1-8.7-6.3-7.6-11.6c0,0,0-0.1,0-0.1c1.1-4.5,5.1-7.7,9.8-7.7c0.7,0,1.4,0.1,2.2,0.2
		c2.6,0.5,4.8,2.1,6.3,4.3c1.4,2.2,1.9,4.8,1.3,7.4C47.2,46.6,43.2,49.8,38.5,49.8L38.5,49.8z M38.5,32.1c-3.8,0-7,2.6-7.9,6.2
		c-0.9,4.3,1.8,8.5,6.1,9.4c0,0,0.1,0,0.1,0c0.6,0.1,1.2,0.2,1.7,0.2c3.8,0,7-2.6,7.9-6.2c0.5-2.1,0.1-4.2-1.1-6
		c-1.2-1.8-3-3-5.1-3.5C39.7,32.1,39.1,32.1,38.5,32.1L38.5,32.1z"/>
	<rect x="22.7" y="89.6" class="st3" width="22.4" height="9.5"/>
	<path d="M45.1,100H22.7c-0.5,0-0.9-0.4-0.9-0.9c0,0,0,0,0,0v-9.5c0-0.5,0.4-0.9,0.9-0.9c0,0,0,0,0,0h22.4c0.5,0,0.9,0.4,1,0.9
		c0,0,0,0,0,0v9.5C46.1,99.6,45.7,100,45.1,100C45.1,100,45.1,100,45.1,100z M23.6,98.2h20.5v-7.6H23.6V98.2z"/>
	<path d="M57,96.9h-8.1c-0.5,0-0.9-0.4-0.9-0.9s0.4-0.9,0.9-0.9c0,0,0,0,0,0H57c0.5,0,0.9,0.4,0.9,0.9S57.5,96.9,57,96.9
		C57,96.9,57,96.9,57,96.9z"/>
	<path d="M57,106.6H22.7c-0.5,0-0.9-0.4-0.9-0.9s0.4-0.9,0.9-0.9c0,0,0,0,0,0H57c0.5,0,0.9,0.4,0.9,0.9S57.5,106.5,57,106.6
		C57,106.6,57,106.6,57,106.6z"/>
	<path d="M57,115.8H22.7c-0.5,0-0.9-0.4-0.9-0.9s0.4-0.9,0.9-0.9c0,0,0,0,0,0H57c0.5,0,0.9,0.4,0.9,0.9S57.5,115.8,57,115.8
		C57,115.8,57,115.8,57,115.8z"/>
	<path d="M47.7,125h-25c-0.5,0-0.9-0.4-0.9-0.9s0.4-0.9,0.9-0.9c0,0,0,0,0,0h25c0.5,0,0.9,0.4,0.9,0.9S48.2,125,47.7,125
		C47.7,125,47.7,125,47.7,125z"/>
	<path d="M201.6,75.5c-2.2,0-4-1.9-3.9-4.1c0-2.2,1.9-4,4.1-3.9c2.2,0,3.9,1.8,3.9,4C205.7,73.7,203.9,75.5,201.6,75.5z M201.6,69.3
		c-1.2,0-2.1,1-2.1,2.2c0,1.2,1,2.1,2.2,2.1c1.2,0,2.1-1,2.1-2.2C203.9,70.3,202.9,69.3,201.6,69.3z"/>
	<path d="M204.8,95.5c-3.2-0.1-5.7-2.7-5.6-5.9c0.1-3.2,2.7-5.7,5.9-5.6c3.1,0.1,5.6,2.6,5.6,5.7C210.6,92.9,208,95.5,204.8,95.5z
		 M204.8,85.9c-2.1,0-3.8,1.8-3.8,4c0,2.1,1.8,3.8,4,3.8c2.1,0,3.8-1.8,3.8-3.9C208.8,87.6,207,85.8,204.8,85.9z"/>
	<path d="M220.1,73.6h-5c-0.5,0-0.9-0.4-1-0.9c0-0.5,0.4-0.9,0.9-1c0,0,0,0,0.1,0h5c0.5,0,0.9,0.4,1,0.9
		C221,73.1,220.6,73.5,220.1,73.6C220.1,73.6,220.1,73.6,220.1,73.6z"/>
</g>
</svg>
